<svg viewBox="-20 -280 960 960" xmlns="http://www.w3.org/2000/svg">
  <g id="ferries">
    <path d="M593.117,487.395L603.285,489.864L609.774,489.864L616.531,488.03L635.195,479.138" fill="none"/>
    <path d="M847.195,338.069L834.619,359.825L810.201,393.794" fill="none"/>
    <path d="M929.547,491.064L961.123,484.36L964.2,481.89L971.96,472.434L1034.376,447.943" fill="none"/>
    <path d="M-58.069,719.007L-34.655,709.215L-26.493,702.804L-23.148,696.744L-21.744,689.064L-23.817,682.652L-32.648,678.071L-33.651,672.293L-19.068,660.101L-14.987,657.916L-9.234,657L-0.738,650.939L1.269,647.274L2.34,640.507L5.685,634.092" fill="none"/>
    <path d="M635.195,479.138L669.447,435.731" fill="none"/>
    <path d="M5.685,634.092L26.423,622.814L95.93,603.567" fill="none"/>
    <path d="M417.108,426.554L402.524,482.173" fill="none"/>
    <path d="M426.607,713.794L425.604,610.547L426.273,601.099" fill="none"/>
    <path d="M801.37,548.843L773.875,540.591L756.615,529.304L741.697,532.337L734.874,530.785L726.11,530.785" fill="none"/>
    <path d="M1008.286,417.376L974.034,398.666L946.204,367.452L930.952,357.635" fill="none"/>
    <path d="M560.203,555.896L559.199,541.225L563.614,512.161L628.439,546.727" fill="none"/>
    <path d="M1081.205,502.354L1088.63,495.368L1191.386,466.012" fill="none"/>
    <path d="M5.685,634.092L16.589,621.545L27.426,597.715L33.849,592.849L44.686,592.215L49.436,594.048L55.925,598.631L61.009,597.433L95.93,603.567" fill="none"/>
    <path d="M1182.288,228.46L1174.126,223.229L1159.877,208.239L1156.465,206.684L1146.966,204.563L1140.543,198.128L1130.375,169.274" fill="none"/>
    <path d="M663.359,591.933L673.193,581.849L674.866,569.014L712.53,534.171L726.11,530.785" fill="none"/>
    <path d="M-58.069,719.007L-62.485,704.072L-65.495,698.224L-68.907,694.56L-76.734,688.148L-90.649,670.743L-94.663,664.964L-102.824,646.005L-126.907,622.814L-129.65,619.43L-137.745,603.849L-149.318,573.881L-154.068,563.514L-157.078,559.211L-169.321,546.727" fill="none"/>
    <path d="M1182.288,228.46L1184.964,221.108" fill="none"/>
    <path d="M1194.129,568.38L1084.215,505.74L1081.205,502.354" fill="none"/>
    <path d="M801.37,548.843L819.7,533.254L827.46,527.47L832.21,521.615L841.375,513.078L847.53,509.691" fill="none"/>
    <path d="M625.696,572.964L628.439,546.727" fill="none"/>
    <path d="M592.782,692.446L600.944,647.274L602.282,645.723" fill="none"/>
    <path d="M1034.376,447.943L1094.049,424.719L1154.793,405.444L1189.713,396.265" fill="none"/>
    <path d="M688.446,690.332L723.367,690.896L832.612,649.106L923.459,566.264" fill="none"/>
    <path d="M560.203,555.896L561.942,576.983L562.945,582.484L602.282,645.723" fill="none"/>
    <path d="M1185.298,230.581L1182.288,228.46" fill="none"/>
    <path d="M1008.286,417.376L1034.376,447.943" fill="none"/>
    <path d="M568.03,709.567L592.782,692.446" fill="none"/>
    <path d="M896.031,368.653L863.786,411.234L861.779,444.908" fill="none"/>
    <path d="M1124.287,108.93L1130.04,141.404L1130.375,169.274" fill="none"/>
    <path d="M663.359,591.933L625.696,572.964" fill="none"/>
    <path d="M847.53,509.691L852.949,507.857L867.198,507.575L873.955,501.789L894.292,497.767" fill="none"/>
    <path d="M1042.203,695.828L1054.044,632.894L1068.628,515.195" fill="none"/>
    <path d="M769.125,364.698L793.61,376.633" fill="none"/>
    <path d="M1034.376,447.943L1081.205,502.354" fill="none"/>
    <path d="M590.106,708.651L592.782,692.446" fill="none"/>
    <path d="M793.61,376.633L800.701,380.941L810.201,393.794" fill="none"/>
    <path d="M402.524,482.173L397.105,470.246L394.028,466.576L374.36,455.284L361.85,436.649L361.515,431.425L363.857,407.845" fill="none"/>
    <path d="M400.851,488.594L409.281,523.449L425.938,561.045L426.942,567.463L427.611,576.349L426.273,601.099" fill="none"/>
    <path d="M669.447,435.731L670.116,426.836L674.531,406.362L664.697,400.502" fill="none"/>
    <path d="M894.292,497.767L929.547,491.064" fill="none"/>
    <path d="M861.779,444.908L885.127,456.201L910.949,474.833" fill="none"/>
    <path d="M910.949,474.833L932.29,445.473L935.701,442.437L941.12,441.237L959.785,434.178L980.122,430.225L1008.286,417.376" fill="none"/>
    <path d="M632.118,511.244L635.195,479.138" fill="none"/>
    <path d="M95.93,603.567L101.349,602.016L114.595,594.048L118.675,592.567L128.175,590.099L134.932,583.965L190.858,550.042L196.344,540.591L221.765,526.553L231.934,531.138L247.187,532.62L253.274,531.138L257.69,528.669L261.77,524.366L276.354,504.541L284.516,498.402L287.526,494.098L290.938,485.842L295.688,480.691L321.109,472.081L338.436,474.551L340.443,476.668L343.854,484.643L346.53,486.76L400.851,488.594" fill="none"/>
    <path d="M632.118,511.244L666.704,532.972L726.11,530.785" fill="none"/>
    <path d="M923.459,566.264L1002.867,553.428" fill="none"/>
    <path d="M688.446,690.332L685.703,636.56L684.031,617.315L663.359,591.933" fill="none"/>
    <path d="M602.282,645.723L611.781,605.4L613.454,602.298L625.696,572.964" fill="none"/>
    <path d="M1002.867,553.428L1035.045,548.208L1068.628,515.195L1081.205,502.354" fill="none"/>
    <path d="M910.949,474.833L929.547,491.064" fill="none"/>
    <path d="M894.292,497.767L910.949,474.833" fill="none"/>
    <path d="M923.459,566.264L908.206,569.014L843.449,558.294L842.044,555.896L801.37,548.843" fill="none"/>
    <path d="M861.779,444.908L861.043,462.342L847.53,509.691" fill="none"/>
    <path d="M1008.286,417.376L1028.288,383.978L1032.035,334.678L1040.129,324.929L1052.706,320.337L1067.29,320.902L1073.043,306.206L1056.787,257.514L1058.125,236.732L1074.716,220.471L1083.881,202.371L1124.287,182.146L1130.375,169.274" fill="none"/>
    <path d="M334.355,616.962L396.102,616.962L426.273,601.099" fill="none"/>
    <path d="M632.118,511.244L593.117,487.395" fill="none"/>
    <path d="M-58.069,719.007L-54.992,729.997" fill="none"/>
    <path d="M402.524,482.173L400.851,488.594" fill="none"/>
    <path d="M810.201,393.794L809.532,408.198L811.204,418.294L812.208,420.412L861.779,444.908" fill="none"/>
    <path d="M426.273,601.099L448.282,589.183L524.947,569.014L526.687,566.546L531.771,554.063L534.112,552.511L554.115,554.627L560.203,555.896" fill="none"/>
    <path d="M592.782,692.446L616.865,689.698L688.446,690.332" fill="none"/>
    <path d="M929.547,491.064L1002.867,553.428" fill="none"/>
    <path d="M334.355,616.962L315.356,554.98L314.018,549.478L305.856,545.81L296.022,545.175L287.526,534.806" fill="none"/>
    <path d="M125.767,723.868L169.518,696.11L239.36,616.68L241.099,616.046L334.355,616.962" fill="none"/>
    <path d="M628.439,546.727L632.118,511.244" fill="none"/>
    <path d="M669.447,435.731L674.197,431.425L687.108,428.39L701.358,420.13L713.868,416.105L717.614,413.07L736.947,401.773L743.704,401.773L750.193,407.28L761.031,412.152L770.196,408.198L793.61,376.633" fill="none"/>
    <path d="M593.117,487.395L585.356,481.608L574.117,466.294L576.526,463.259L580.272,451.613L584.62,429.872" fill="none"/>
  </g>
</svg>