<svg viewBox="-20 -280 960 960" xmlns="http://www.w3.org/2000/svg">
  <g id="railways">
    <path d="M752.133,-167.305L756.548,-176.664" fill="none"/>
    <path d="M223.17,271.226L223.772,271.084L224.307,271.084" fill="none"/>
    <path d="M997.716,250.587L998.318,251.011L999.589,251.789" fill="none"/>
    <path d="M499.259,438.061L494.308,416.176" fill="none"/>
    <path d="M373.825,260.2L375.564,260.412" fill="none"/>
    <path d="M463.134,310.798L468.084,292.78L471.161,285.431L474.172,281.685L476.379,280.272L482.4,278.434" fill="none"/>
    <path d="M436.575,296.667L459.187,318.57" fill="none"/>
    <path d="M337.7,148.761L338.235,149.893" fill="none"/>
    <path d="M-211.132,398.666L-199.023,390.051" fill="none"/>
    <path d="M966.14,211.209L965.137,208.664L960.454,196.501L955.704,188.581" fill="none"/>
    <path d="M-420.59,637.687L-401.658,621.756" fill="none"/>
    <path d="M914.495,-799.834L914.428,-799.549" fill="none"/>
    <path d="M881.715,-690.617L876.631,-681.152L861.779,-661.227L856.561,-650.483" fill="none"/>
    <path d="M765.446,-860.888L764.643,-861.744L763.974,-862.527" fill="none"/>
    <path d="M338.235,149.893L342.048,158.098" fill="none"/>
    <path d="M871.479,-523.896L869.406,-526.598L866.663,-528.588L863.452,-529.654L859.906,-529.654L856.695,-528.659L851.744,-525.745" fill="none"/>
    <path d="M303.715,259.069L307.997,256.383L316.292,253.556L325.993,253.344L331.211,254.616" fill="none"/>
    <path d="M377.972,260.765L381.986,262.038" fill="none"/>
    <path d="M235.546,271.579L236.282,271.72" fill="none"/>
    <path d="M-212.336,399.584L-211.132,398.666" fill="none"/>
    <path d="M415.235,284.653L426.139,290.095" fill="none"/>
    <path d="M841.71,-470.168L841.777,-470.594L841.91,-471.589" fill="none"/>
    <path d="M321.176,65.477L321.377,70.078" fill="none"/>
    <path d="M920.047,148.974L909.544,139.07L905.597,133.198L903.858,128.953L902.386,122.232" fill="none"/>
    <path d="M243.307,272.639L248.725,273.346" fill="none"/>
    <path d="M850.54,-518.921L850.741,-520.058L850.808,-520.627" fill="none"/>
    <path d="M283.847,273.417L292.744,268.045" fill="none"/>
    <path d="M556.389,234.116L568.097,221.956" fill="none"/>
    <path d="M890.746,-745.001L890.679,-744.716" fill="none"/>
    <path d="M426.139,290.095L427.678,290.872L428.48,291.296L431.156,292.709L436.575,296.667" fill="none"/>
    <path d="M318.232,23.64L318.232,24.064" fill="none"/>
    <path d="M472.299,322.88L473.101,320.054" fill="none"/>
    <path d="M317.296,30.79L316.426,39.215" fill="none"/>
    <path d="M384.06,-126.968L388.475,-123.495" fill="none"/>
    <path d="M-297.364,-815.291L-292.413,-820.278L-285.322,-823.84L-279.435,-825.193L-263.58,-826.832L-256.355,-828.969L-252.074,-831.605L-234.948,-844.001L-225.181,-851.127L-212.47,-856.542L-208.657,-858.466L-206.516,-859.606L-181.563,-872.005L-175.609,-874.428L-168.786,-876.067L-161.694,-876.495L-139.284,-874L-119.816,-871.863" fill="none"/>
    <path d="M-199.023,390.051L-197.619,389.062" fill="none"/>
    <path d="M488.087,362.297L487.953,361.943L487.284,358.483" fill="none"/>
    <path d="M816.757,-804.393L811.07,-811.017" fill="none"/>
    <path d="M914.428,-799.549L910.481,-788.652" fill="none"/>
    <path d="M321.377,70.786L321.711,78.147" fill="none"/>
    <path d="M-82.554,327.896L-67.769,322.173L-64.692,321.467L-59.207,321.396" fill="none"/>
    <path d="M774.945,-37.76L775.748,-38.681L776.417,-39.389" fill="none"/>
    <path d="M796.42,-306.765L796.554,-307.262" fill="none"/>
    <path d="M377.036,242.528L376.701,247.406L377.437,252.425L379.444,257.585L381.986,262.038" fill="none"/>
    <path d="M776.417,-39.389L780.699,-44.347L781.167,-45.127L786.051,-53.415L797.156,-69.143" fill="none"/>
    <path d="M820.503,-800.262L816.757,-804.393" fill="none"/>
    <path d="M487.618,384.19L488.22,389.839L491.699,404.809" fill="none"/>
    <path d="M405.735,277.94L406.136,278.293" fill="none"/>
    <path d="M463.334,320.125L463.067,316.592" fill="none"/>
    <path d="M728.92,-78.566L729.321,-80.266" fill="none"/>
    <path d="M923.526,-511.813L922.589,-511.315" fill="none"/>
    <path d="M321.778,78.854L321.979,83.879" fill="none"/>
    <path d="M352.417,-145.682L353.153,-145.256" fill="none"/>
    <path d="M488.689,366.04L488.087,362.297" fill="none"/>
    <path d="M305.388,-17.503L304.251,-22.46L304.184,-22.815L303.448,-26.002" fill="none"/>
    <path d="M303.18,259.493L303.715,259.069" fill="none"/>
    <path d="M743.436,-20.69L746.648,-17.928L747.986,-17.432L749.859,-16.794L752.066,-16.724L757.351,-18.353L765.847,-27.772L774.945,-37.76" fill="none"/>
    <path d="M649.712,137.089L650.247,136.452" fill="none"/>
    <path d="M110.514,286.067L116.535,283.24L122.823,281.685L134.932,281.261" fill="none"/>
    <path d="M342.048,158.098L342.115,158.311L342.383,158.664" fill="none"/>
    <path d="M721.427,-45.552L721.695,-46.26" fill="none"/>
    <path d="M729.522,-81.258L737.081,-114.494" fill="none"/>
    <path d="M459.187,318.57L460.056,319.418" fill="none"/>
    <path d="M384.194,263.027L397.038,271.72" fill="none"/>
    <path d="M316.493,40.419L317.496,47.002" fill="none"/>
    <path d="M-41.746,327.825L-41.144,327.896" fill="none"/>
    <path d="M487.819,281.968L488.22,281.473L488.689,280.908" fill="none"/>
    <path d="M491.699,404.809L491.833,405.727L491.967,406.291" fill="none"/>
    <path d="M890.679,-744.716L888.137,-734.037L887,-725.352" fill="none"/>
    <path d="M499.392,439.12L499.259,438.061" fill="none"/>
    <path d="M725.307,-62.625L725.575,-63.971" fill="none"/>
    <path d="M378.708,234.823L378.508,235.53" fill="none"/>
    <path d="M999.589,251.789L1020.796,266.349L1022.669,267.692L1026.415,270.166L1038.725,284.724" fill="none"/>
    <path d="M317.563,28.808L317.43,29.941L317.296,30.79" fill="none"/>
    <path d="M1168.172,-419.23L1160.345,-420.224L1142.082,-420.651L1137.065,-422.071L1119.604,-430.808L1112.312,-435.994L1110.774,-437.486L1110.64,-437.486L1092.577,-454.678L1072.04,-474.147L1063.611,-480.258L1053.175,-485.019L1029.359,-492.197L1029.292,-492.339L1014.574,-496.745L1011.296,-498.593L1010.36,-499.09L996.846,-506.908L988.016,-510.462L955.838,-518.423L952.961,-518.992L947.208,-519.631L940.986,-518.423L923.526,-511.813" fill="none"/>
    <path d="M513.441,268.964L514.712,267.975" fill="none"/>
    <path d="M249.194,273.417L269.664,275.82L275.886,275.608L281.907,274.123" fill="none"/>
    <path d="M484.675,347.11L484.407,333.053L485.277,326.907L485.344,326.483" fill="none"/>
    <path d="M660.817,123.647L684.165,92.867" fill="none"/>
    <path d="M-116.806,-871.577L-101.821,-870.223L-96.536,-870.794L-90.716,-872.575L-86.769,-874.642L-44.422,-902.438L-16.459,-916.48" fill="none"/>
    <path d="M871.479,-523.896L867.8,-531.076L866.997,-533.635L866.663,-534.986L866.863,-560.225L866.93,-565.487L866.261,-570.322L864.99,-574.019L859.17,-585.824" fill="none"/>
    <path d="M763.974,-862.527L763.64,-862.812" fill="none"/>
    <path d="M922.589,-511.315L911.016,-505.203L906.735,-503.71L901.249,-503.142L896.566,-503.568" fill="none"/>
    <path d="M756.548,-176.664L756.95,-177.444L757.351,-178.294" fill="none"/>
    <path d="M134.932,281.261L135.868,281.261L137.34,281.261" fill="none"/>
    <path d="M488.889,368.371L488.822,367.876L488.756,366.534" fill="none"/>
    <path d="M799.965,-318.547L800.166,-319.327L800.501,-320.179" fill="none"/>
    <path d="M295.219,-91.816L295.153,-93.659" fill="none"/>
    <path d="M-140.019,349.441L-138.882,349.088" fill="none"/>
    <path d="M684.834,92.018L686.64,89.258" fill="none"/>
    <path d="M501.868,450.202L499.392,439.12" fill="none"/>
    <path d="M349.005,170.83L350.277,172.032L355.628,177.69L357.368,178.893L362.987,182.712L365.128,184.126" fill="none"/>
    <path d="M3.076,324.081L12.575,325.706L20.068,324.293L25.687,321.396L34.518,313.695L40.806,309.527" fill="none"/>
    <path d="M796.554,-307.262L799.965,-318.547" fill="none"/>
    <path d="M295.955,-77.857L295.219,-91.816" fill="none"/>
    <path d="M476.246,336.091L474.573,333.265" fill="none"/>
    <path d="M397.038,271.72L397.573,272.074" fill="none"/>
    <path d="M59.337,304.086L61.879,303.591" fill="none"/>
    <path d="M309.937,-5.605L310.405,-4.613L310.74,-3.905" fill="none"/>
    <path d="M375.564,260.412L377.37,260.624" fill="none"/>
    <path d="M-347.805,546.727L-343.256,539.462L-340.714,534.03" fill="none"/>
    <path d="M293.346,267.551L297.293,264.299" fill="none"/>
    <path d="M593.183,195.865L594.923,194.026" fill="none"/>
    <path d="M294.751,-102.73L294.751,-110.312L296.29,-116.691" fill="none"/>
    <path d="M853.149,-640.878L852.815,-639.456" fill="none"/>
    <path d="M854.889,-645.503L855.156,-646.001L856.561,-650.483" fill="none"/>
    <path d="M729.321,-80.266L729.522,-81.258" fill="none"/>
    <path d="M365.128,184.126L368.54,186.46" fill="none"/>
    <path d="M751.397,-165.603L751.999,-167.021" fill="none"/>
    <path d="M-316.162,469.964L-297.899,445.473" fill="none"/>
    <path d="M461.662,321.043L463.669,323.092" fill="none"/>
    <path d="M-106.102,337.009L-104.563,336.373" fill="none"/>
    <path d="M315.155,6.15L317.296,11.107L318.567,18.188" fill="none"/>
    <path d="M650.783,135.886L660.148,124.567" fill="none"/>
    <path d="M846.326,-495.679L848.065,-504.918" fill="none"/>
    <path d="M686.64,89.258L691.524,79.774L693.932,72.909" fill="none"/>
    <path d="M555.319,235.247L556.389,234.116" fill="none"/>
    <path d="M848.199,-505.985L848.868,-509.894" fill="none"/>
    <path d="M931.487,164.535L930.952,163.969L930.417,163.333" fill="none"/>
    <path d="M296.089,-75.944L295.955,-77.857" fill="none"/>
    <path d="M610.176,178.185L611.58,176.771L612.182,176.064L612.985,175.286" fill="none"/>
    <path d="M75.794,300.906L76.663,300.765" fill="none"/>
    <path d="M373.156,189.43L378.508,193.744" fill="none"/>
    <path d="M735.877,-152.133L739.891,-147.879L741.898,-144.051" fill="none"/>
    <path d="M834.752,-767.003L832.612,-776.83L829.334,-785.519" fill="none"/>
    <path d="M338.77,256.524L340.108,256.949" fill="none"/>
    <path d="M296.29,-116.691L297.293,-118.746L298.431,-121.156L298.899,-122.29" fill="none"/>
    <path d="M179.285,276.244L179.887,276.173L180.355,276.032" fill="none"/>
    <path d="M485.678,325.494L494.843,293.487L501.265,281.968L506.015,276.032" fill="none"/>
    <path d="M614.122,174.154L615.929,172.244" fill="none"/>
    <path d="M749.524,-881.127L755.679,-900.157L755.679,-900.299L758.154,-907.855L758.422,-916.48" fill="none"/>
    <path d="M480.661,340.965L482.4,342.872L484.675,347.11" fill="none"/>
    <path d="M723.501,-45.339L724.437,-41.443L725.708,-39.176L729.789,-34.926L729.923,-34.714L742.567,-21.469" fill="none"/>
    <path d="M506.015,276.032L511.033,270.872" fill="none"/>
    <path d="M476.246,336.091L479.256,339.34" fill="none"/>
    <path d="M292.744,268.045L293.346,267.551" fill="none"/>
    <path d="M824.651,-376.193L826.122,-367.175" fill="none"/>
    <path d="M-394.031,615.411L-383.461,606.034L-379.514,600.323L-362.522,569.72L-348.407,547.715" fill="none"/>
    <path d="M366.466,260.412L367.135,260.271" fill="none"/>
    <path d="M313.817,-137.033L322.848,-144.76L325.859,-146.603L330.006,-148.517L334.89,-149.651L343.854,-149.226L347.868,-148.092L352.417,-145.682" fill="none"/>
    <path d="M406.136,278.293L414.499,284.088" fill="none"/>
    <path d="M399.246,-114.069L399.647,-113.785" fill="none"/>
    <path d="M846.125,-494.329L846.326,-495.679" fill="none"/>
    <path d="M473.77,332.135L472.098,328.744L472.165,324.01" fill="none"/>
    <path d="M299.702,-47.464L299.367,-49.306" fill="none"/>
    <path d="M322.046,85.932L322.179,88.338" fill="none"/>
    <path d="M98.673,293.911L99.609,293.204L100.814,292.427" fill="none"/>
    <path d="M320.239,57.408L320.373,58.116L320.641,59.532" fill="none"/>
    <path d="M-335.562,518.651L-335.295,517.734" fill="none"/>
    <path d="M800.501,-320.179L820.771,-364.761L824.651,-376.193" fill="none"/>
    <path d="M58.467,304.227L58.869,304.227L59.337,304.086" fill="none"/>
    <path d="M300.103,-45.481L299.768,-47.11L299.702,-47.464" fill="none"/>
    <path d="M372.955,189.288L373.156,189.43" fill="none"/>
    <path d="M-18.466,324.717L-16.459,324.081" fill="none"/>
    <path d="M977.78,237.156L982.932,241.327L996.846,250.092L997.716,250.587" fill="none"/>
    <path d="M741.898,-144.051L742.834,-139.16" fill="none"/>
    <path d="M318.232,24.064L318.032,25.48" fill="none"/>
    <path d="M909.277,-786.088L904.326,-776.973" fill="none"/>
    <path d="M741.764,-134.765L742.834,-139.16" fill="none"/>
    <path d="M405.534,-110.667L407.207,-110.029L410.217,-109.037L412.893,-108.186L414.298,-107.69L435.237,-108.116L436.843,-108.186L439.318,-108.186L441.659,-107.619L443.332,-107.123L453.902,-104.147L467.214,-95.926L467.415,-95.856L479.189,-87.14L491.164,-79.274L495.111,-77.716L495.378,-77.503L500.864,-75.378L503.272,-75.094L509.293,-74.386L519.796,-75.944L522.205,-77.361L524.011,-78.353L524.947,-78.92L527.556,-80.55L534.046,-85.652" fill="none"/>
    <path d="M180.355,276.032L194.605,273.134L212.065,271.932" fill="none"/>
    <path d="M331.277,135.462L331.478,135.745" fill="none"/>
    <path d="M734.004,-913.13L732.532,-916.48" fill="none"/>
    <path d="M353.153,-145.256L384.06,-126.968" fill="none"/>
    <path d="M907.939,-882.339L909.812,-859.677L913.424,-844.286" fill="none"/>
    <path d="M-232.673,412.858L-226.184,409.327L-213.072,400.078" fill="none"/>
    <path d="M852.28,-636.468L845.322,-688.055" fill="none"/>
    <path d="M708.85,8.487L715.741,-20.761" fill="none"/>
    <path d="M967.879,218.704L966.14,211.209" fill="none"/>
    <path d="M871.479,-523.896L874.49,-518.778L877.366,-514.158L881.447,-510.178L886.398,-506.837" fill="none"/>
    <path d="M907.939,-882.552L907.939,-882.339" fill="none"/>
    <path d="M514.712,267.975L517.321,265.925" fill="none"/>
    <path d="M368.54,186.46L372.955,189.288" fill="none"/>
    <path d="M320.641,59.532L321.176,64.911" fill="none"/>
    <path d="M488.889,368.371L487.618,381.789" fill="none"/>
    <path d="M902.386,122.232L902.252,120.675" fill="none"/>
    <path d="M654.596,-164.894L662.69,-165.178L682.827,-168.935L687.978,-169.432L693.865,-169.29L699.418,-168.014L707.512,-164.823" fill="none"/>
    <path d="M708.516,9.903L708.85,8.487" fill="none"/>
    <path d="M314.553,4.946L314.821,5.513L315.155,6.15" fill="none"/>
    <path d="M-111.855,339.34L-106.102,337.009" fill="none"/>
    <path d="M850.808,-520.627L851.744,-525.745" fill="none"/>
    <path d="M345.393,164.959L345.594,165.384" fill="none"/>
    <path d="M770.062,-207.014L770.396,-207.865" fill="none"/>
    <path d="M473.302,333.053L474.172,333.971" fill="none"/>
    <path d="M684.165,92.867L684.834,92.018" fill="none"/>
    <path d="M885.862,-703.428L883.789,-695.385L882.25,-691.827" fill="none"/>
    <path d="M322.915,105.109L324.32,116.359" fill="none"/>
    <path d="M786.385,-267.523L790.198,-282.636" fill="none"/>
    <path d="M763.64,-862.812L758.087,-869.155L749.524,-881.127" fill="none"/>
    <path d="M324.454,117.067L327.464,126.972L331.277,135.462" fill="none"/>
    <path d="M704.234,28.596L704.368,27.888L704.502,27.18" fill="none"/>
    <path d="M76.663,300.765L90.712,297.656L98.673,293.911" fill="none"/>
    <path d="M486.949,357.564L484.675,347.11" fill="none"/>
    <path d="M841.91,-471.589L846.125,-494.329" fill="none"/>
    <path d="M-234.279,413.493L-232.673,412.858" fill="none"/>
    <path d="M-213.072,400.078L-212.336,399.584" fill="none"/>
    <path d="M385.732,215.734L385.465,217.36L385.331,218.28" fill="none"/>
    <path d="M-248.26,415.823L-241.102,415.258L-234.279,413.493" fill="none"/>
    <path d="M790.198,-282.636L790.399,-283.275" fill="none"/>
    <path d="M854.889,-645.503L853.149,-640.878" fill="none"/>
    <path d="M902.788,113.388L903.992,107.727L904.193,106.736L904.326,106.241L904.928,103.411L905.196,101.5L906.4,92.725L905.798,82.888L902.855,74.325L901.182,70.857L897.57,66.185L892.017,60.947L876.162,51.037L871.145,46.294L868.335,42.118L867.399,40.843L862.381,30.295L862.181,29.587L861.578,28.171L860.642,25.764L856.762,16.276L856.093,13.798L854.153,7.637L851.744,0.202L850.34,-4.259L847.931,-10.562L844.586,-19.769L844.586,-19.769L836.291,-41.939L835.823,-43.001L835.221,-52.777L835.756,-56.178L841.041,-91.391L841.041,-91.675L841.509,-95.076L845.188,-107.974L857.832,-141.216L858.434,-142.704L863.318,-155.677L864.79,-159.435L865.325,-160.853L866.73,-164.469L868.201,-172.835L868.402,-180.634L866.328,-200.135L862.716,-220.632L862.247,-223.327L861.712,-225.668L860.976,-229.143L858.3,-241.699L857.163,-247.09L856.36,-253.688L856.36,-254.965L856.293,-258.441L855.959,-270.645L855.959,-271.071L856.762,-281.501L856.628,-288.952L856.093,-292.571L855.357,-297.042L847.797,-322.096L847.797,-322.096L844.921,-331.394L838.833,-343.036L834.685,-348.006L829.802,-357.945L828.665,-360.217L826.122,-367.175" fill="none"/>
    <path d="M379.377,194.734L382.388,198.906" fill="none"/>
    <path d="M479.457,339.623L480.661,340.965" fill="none"/>
    <path d="M295.153,-93.659L294.952,-100.604" fill="none"/>
    <path d="M485.344,326.483L485.678,325.494" fill="none"/>
    <path d="M321.711,78.147L321.778,78.854" fill="none"/>
    <path d="M743.436,-141.995L745.979,-150.857L747.919,-157.521L751.397,-165.603" fill="none"/>
    <path d="M751.999,-167.021L752.133,-167.305" fill="none"/>
    <path d="M810.134,-812.014L765.446,-860.888" fill="none"/>
    <path d="M-56.598,321.961L-41.746,327.825" fill="none"/>
    <path d="M248.725,273.346L249.194,273.417" fill="none"/>
    <path d="M722.564,-50.652L723.434,-45.835" fill="none"/>
    <path d="M302.846,-29.756L302.378,-32.235L301.976,-34.926" fill="none"/>
    <path d="M702.294,36.808L704.234,28.596" fill="none"/>
    <path d="M41.274,309.385L47.295,306.7L58.467,304.227" fill="none"/>
    <path d="M742.834,-139.16L743.37,-136.183" fill="none"/>
    <path d="M906.868,-902.723L907.939,-882.552" fill="none"/>
    <path d="M108.44,287.056L109.243,286.632" fill="none"/>
    <path d="M212.667,271.932L223.17,271.226" fill="none"/>
    <path d="M236.282,271.72L241.099,272.286" fill="none"/>
    <path d="M886.398,-506.837L887.134,-506.411" fill="none"/>
    <path d="M487.618,381.789L487.618,382.989L487.618,384.19" fill="none"/>
    <path d="M517.321,265.925L518.391,265.147" fill="none"/>
    <path d="M904.326,-776.973L903.992,-776.545L903.724,-775.904" fill="none"/>
    <path d="M824.651,-376.193L827.059,-386.489" fill="none"/>
    <path d="M460.056,319.418L460.725,320.125L461.662,321.043" fill="none"/>
    <path d="M714.871,-161.774L727.916,-156.103" fill="none"/>
    <path d="M719.019,-35.068L721.427,-45.552" fill="none"/>
    <path d="M385.933,209.936L385.732,215.734" fill="none"/>
    <path d="M482.4,278.434L487.484,277.728" fill="none"/>
    <path d="M-297.23,444.626L-285.255,431.213L-278.097,424.366L-272.678,420.836L-266.724,418.223L-259.299,416.529L-248.26,415.823" fill="none"/>
    <path d="M317.831,48.135L320.039,56.771" fill="none"/>
    <path d="M-400.052,620.487L-394.031,615.411" fill="none"/>
    <path d="M725.575,-63.971L728.92,-78.566" fill="none"/>
    <path d="M324.32,116.359L324.454,117.067" fill="none"/>
    <path d="M727.916,-156.103L734.338,-152.983L735.877,-152.133" fill="none"/>
    <path d="M306.927,-12.545L305.388,-17.503" fill="none"/>
    <path d="M-297.899,445.473L-297.23,444.626" fill="none"/>
    <path d="M645.297,141.829L649.712,137.089" fill="none"/>
    <path d="M-348.407,547.715L-348.072,547.221L-347.805,546.727" fill="none"/>
    <path d="M463.067,316.592L463.067,315.815" fill="none"/>
    <path d="M40.806,309.527L41.274,309.385" fill="none"/>
    <path d="M770.396,-207.865L774.343,-220.419L785.783,-265.394" fill="none"/>
    <path d="M792.406,-290.868L792.673,-292.287" fill="none"/>
    <path d="M306.927,-12.545L309.937,-5.605" fill="none"/>
    <path d="M301.775,-125.834L303.916,-127.96L306.927,-130.796" fill="none"/>
    <path d="M384.328,221.532L382.588,225.632" fill="none"/>
    <path d="M-84.16,328.532L-83.022,328.037L-82.554,327.896" fill="none"/>
    <path d="M382.388,198.906L382.99,199.896" fill="none"/>
    <path d="M749.524,-881.127L743.303,-892.744L734.606,-911.776" fill="none"/>
    <path d="M713.734,-162.271L714.871,-161.774" fill="none"/>
    <path d="M488.689,280.908L489.625,280.06L492.97,277.021" fill="none"/>
    <path d="M399.647,-113.785L405.534,-110.667" fill="none"/>
    <path d="M831.341,-411.133L841.71,-470.168" fill="none"/>
    <path d="M403.059,276.032L405.735,277.94" fill="none"/>
    <path d="M839.703,-729.766L837.83,-744.218" fill="none"/>
    <path d="M367.135,260.271L373.825,260.2" fill="none"/>
    <path d="M169.518,278.364L179.285,276.244" fill="none"/>
    <path d="M707.512,-164.823L713.734,-162.271" fill="none"/>
    <path d="M902.252,120.675L902.788,113.388" fill="none"/>
    <path d="M472.165,324.01L472.299,322.88" fill="none"/>
    <path d="M321.979,83.879L321.979,84.941L322.046,85.932" fill="none"/>
    <path d="M382.588,225.632L381.384,228.46L380.916,229.592" fill="none"/>
    <path d="M716.075,-22.673L716.945,-26.143L717.079,-26.71" fill="none"/>
    <path d="M-420.59,-621.884L-419.787,-622.525L-411.759,-626.864L-378.645,-637.535L-378.578,-637.535L-362.054,-642.942L-356.033,-645.503L-350.615,-649.558L-345.196,-656.389L-342.185,-663.789L-336.231,-691.542L-336.231,-691.613L-332.485,-708.98L-318.771,-745.001L-307.8,-773.697L-306.127,-781.032L-305.325,-794.421L-304.455,-800.333L-301.311,-808.809L-299.638,-811.73L-297.631,-814.864" fill="none"/>
    <path d="M882.25,-691.827L881.982,-691.329L881.715,-690.617" fill="none"/>
    <path d="M913.759,-843.004L915.498,-836.236L916.97,-827.188L917.305,-819.708L916.502,-809.308L914.495,-799.834" fill="none"/>
    <path d="M303.448,-26.002L302.846,-29.756" fill="none"/>
    <path d="M378.508,235.53L377.972,237.58" fill="none"/>
    <path d="M-338.84,528.387L-335.562,518.651" fill="none"/>
    <path d="M137.34,281.261L155.269,281.12L169.518,278.364" fill="none"/>
    <path d="M320.039,56.771L320.239,57.408" fill="none"/>
    <path d="M896.566,-503.568L895.362,-503.781L893.355,-504.208L892.418,-504.279" fill="none"/>
    <path d="M377.905,238.004L377.17,241.822" fill="none"/>
    <path d="M-104.563,336.373L-93.86,332.276" fill="none"/>
    <path d="M504.142,474.057L503.339,458.46L501.868,450.202" fill="none"/>
    <path d="M829.334,-785.519L828.865,-786.373" fill="none"/>
    <path d="M234.476,271.508L235.546,271.579" fill="none"/>
    <path d="M486.414,285.219L487.819,281.968" fill="none"/>
    <path d="M463.602,321.961L463.401,320.69L463.334,320.125" fill="none"/>
    <path d="M827.059,-386.489L827.059,-386.702L827.126,-386.844" fill="none"/>
    <path d="M212.065,271.932L212.667,271.932" fill="none"/>
    <path d="M100.814,292.427L108.44,287.056" fill="none"/>
    <path d="M534.046,-85.652L536.788,-88.061L538.126,-90.257L538.996,-91.533L540.602,-94.013L545.017,-103.013L545.418,-103.863L554.851,-123.07L557.058,-127.677L558.129,-129.803" fill="none"/>
    <path d="M737.081,-114.494L737.282,-114.99" fill="none"/>
    <path d="M606.764,181.721L607.232,181.226" fill="none"/>
    <path d="M554.516,236.095L555.319,235.247" fill="none"/>
    <path d="M321.176,64.911L321.176,65.477" fill="none"/>
    <path d="M489.157,277.586L492.97,277.021" fill="none"/>
    <path d="M331.211,254.616L338.77,256.524" fill="none"/>
    <path d="M743.37,-136.183L743.503,-131.93L741.898,-124.842L737.081,-114.494" fill="none"/>
    <path d="M834.886,-765.864L834.819,-766.362L834.752,-767.003" fill="none"/>
    <path d="M858.969,-586.962L852.28,-636.468" fill="none"/>
    <path d="M811.07,-811.017L810.669,-811.445L810.134,-812.014" fill="none"/>
    <path d="M721.695,-46.26L722.564,-50.652" fill="none"/>
    <path d="M318.567,18.896L318.232,23.64" fill="none"/>
    <path d="M616.33,171.749L643.558,143.81" fill="none"/>
    <path d="M301.976,-34.926L300.103,-45.481" fill="none"/>
    <path d="M401.052,274.618L401.654,275.042L402.256,275.466" fill="none"/>
    <path d="M769.861,-206.447L770.062,-207.014" fill="none"/>
    <path d="M734.606,-911.776L734.004,-913.13" fill="none"/>
    <path d="M612.985,175.286L614.122,174.154" fill="none"/>
    <path d="M322.246,90.461L322.38,92.513" fill="none"/>
    <path d="M298.899,-122.29L301.775,-125.834" fill="none"/>
    <path d="M340.108,256.949L354.826,260.695L359.642,260.977L366.466,260.412" fill="none"/>
    <path d="M827.126,-386.844L831.341,-411.133" fill="none"/>
    <path d="M402.256,275.466L403.059,276.032" fill="none"/>
    <path d="M839.903,-728.2L839.703,-729.766" fill="none"/>
    <path d="M299.367,-49.306L296.424,-68.222L296.089,-75.944" fill="none"/>
    <path d="M463.067,315.815L463.134,311.788L463.134,310.798" fill="none"/>
    <path d="M930.417,163.333L925.065,155.835" fill="none"/>
    <path d="M463.669,323.092L463.602,321.961" fill="none"/>
    <path d="M717.079,-26.71L719.019,-35.068" fill="none"/>
    <path d="M-59.207,321.396L-58.27,321.538L-56.598,321.961" fill="none"/>
    <path d="M474.573,333.265L473.77,332.135" fill="none"/>
    <path d="M333.886,140.909L337.432,148.408L337.7,148.761" fill="none"/>
    <path d="M-119.816,-871.863L-118.211,-871.649L-116.806,-871.577" fill="none"/>
    <path d="M792.673,-292.287L796.42,-306.765" fill="none"/>
    <path d="M913.424,-844.286L913.759,-843.004" fill="none"/>
    <path d="M318.567,18.188L318.567,18.896" fill="none"/>
    <path d="M967.879,218.704L971.091,228.39L976.509,235.954" fill="none"/>
    <path d="M-16.459,324.081L-9.167,322.668L0.199,323.374" fill="none"/>
    <path d="M518.391,265.147L540.802,249.809L554.516,236.095" fill="none"/>
    <path d="M61.879,303.591L75.794,300.906" fill="none"/>
    <path d="M693.932,72.909L694.4,71.14" fill="none"/>
    <path d="M322.447,94.636L322.848,103.835L322.915,105.109" fill="none"/>
    <path d="M742.834,-139.16L743.436,-141.995" fill="none"/>
    <path d="M385.331,218.28L384.328,221.532" fill="none"/>
    <path d="M-340.714,534.03L-340.379,533.043" fill="none"/>
    <path d="M316.426,39.215L316.493,40.419" fill="none"/>
    <path d="M-93.86,332.276L-84.16,328.532" fill="none"/>
    <path d="M906.199,-916.48L906.868,-902.723" fill="none"/>
    <path d="M1.804,323.798L3.076,324.081" fill="none"/>
    <path d="M848.065,-504.918L848.199,-505.985" fill="none"/>
    <path d="M385.197,205.835L385.532,207.886L385.933,209.936" fill="none"/>
    <path d="M757.351,-178.294L765.045,-194.604L769.861,-206.447" fill="none"/>
    <path d="M511.033,270.872L511.902,270.166L512.973,269.388L513.441,268.964" fill="none"/>
    <path d="M660.148,124.567L660.817,123.647" fill="none"/>
    <path d="M-39.806,328.108L-32.247,328.249L-18.466,324.717" fill="none"/>
    <path d="M378.508,193.744L379.377,194.734" fill="none"/>
    <path d="M558.129,-129.803L559.667,-133.206L559.868,-133.489L561.273,-136.537L562.945,-140.294L563.28,-141.003L567.695,-150.857L573.984,-160.924L574.452,-161.491L577.195,-164.61L577.596,-165.036L578.667,-166.312L586.36,-171.488L589.036,-172.622L590.173,-172.977L594.187,-174.537L601.211,-175.955L606.295,-175.742L607.767,-175.458L608.971,-175.246L617.601,-173.331L618.805,-172.906L621.615,-171.984L621.749,-171.984L625.294,-170.85L628.372,-169.857L628.372,-169.857L633.122,-168.439L634.66,-167.943L638.273,-166.808L639.878,-166.312L644.628,-165.178L653.592,-164.894L654.596,-164.894" fill="none"/>
    <path d="M-115.334,340.612L-111.855,339.34" fill="none"/>
    <path d="M791.001,-285.688L792.406,-290.868" fill="none"/>
    <path d="M723.434,-45.835L723.501,-45.339" fill="none"/>
    <path d="M852.815,-639.456L852.28,-636.468" fill="none"/>
    <path d="M704.502,27.18L708.516,9.903" fill="none"/>
    <path d="M-401.658,621.756L-400.855,621.192L-400.052,620.487" fill="none"/>
    <path d="M224.307,271.084L234.476,271.508" fill="none"/>
    <path d="M742.567,-21.469L743.436,-20.69" fill="none"/>
    <path d="M925.065,155.835L922.857,152.723L922.723,152.51L920.047,148.974" fill="none"/>
    <path d="M887,-725.352L887,-723.786L886.866,-720.939" fill="none"/>
    <path d="M382.99,199.896L385.197,205.835" fill="none"/>
    <path d="M474.172,333.971L476.246,336.091" fill="none"/>
    <path d="M377.972,237.58L377.905,238.004" fill="none"/>
    <path d="M851.744,-525.745L859.371,-571.744L859.638,-579.566L859.17,-585.824" fill="none"/>
    <path d="M322.179,88.338L322.246,90.461" fill="none"/>
    <path d="M785.783,-265.394L786.385,-267.523" fill="none"/>
    <path d="M643.558,143.81L645.297,141.829" fill="none"/>
    <path d="M241.099,272.286L242.169,272.498L243.307,272.639" fill="none"/>
    <path d="M845.322,-688.055L845.255,-688.909L845.122,-689.692" fill="none"/>
    <path d="M500.195,469.611L499.526,456.907L501.868,450.202" fill="none"/>
    <path d="M722.564,-50.652L725.307,-62.625" fill="none"/>
    <path d="M388.475,-123.495L399.246,-114.069" fill="none"/>
    <path d="M310.74,-3.905L314.553,4.946" fill="none"/>
    <path d="M306.927,-130.796L311.141,-134.623L313.817,-137.033" fill="none"/>
    <path d="M488.756,366.534L488.689,366.04" fill="none"/>
    <path d="M694.4,71.14L702.294,36.808" fill="none"/>
    <path d="M381.986,262.038L384.194,263.027" fill="none"/>
    <path d="M955.704,188.581L950.954,183.631L943.595,177.549L936.036,169.981L931.487,164.535" fill="none"/>
    <path d="M294.952,-100.604L294.751,-102.73" fill="none"/>
    <path d="M790.399,-283.275L791.001,-285.688" fill="none"/>
    <path d="M-138.882,349.088L-115.334,340.612" fill="none"/>
    <path d="M-41.144,327.896L-39.806,328.108" fill="none"/>
    <path d="M837.83,-744.218L837.696,-745.215" fill="none"/>
    <path d="M845.122,-689.692L839.903,-728.2" fill="none"/>
    <path d="M821.239,-799.122L820.971,-799.549L820.503,-800.262" fill="none"/>
    <path d="M377.37,260.624L377.972,260.765" fill="none"/>
    <path d="M342.383,158.664L345.393,164.959" fill="none"/>
    <path d="M976.509,235.954L977.178,236.59L977.78,237.156" fill="none"/>
    <path d="M-197.619,389.062L-185.109,380.094L-165.976,363.215L-156.476,355.869L-149.586,352.267L-140.019,349.441" fill="none"/>
    <path d="M414.499,284.088L415.235,284.653" fill="none"/>
    <path d="M331.478,135.745L333.886,140.909" fill="none"/>
    <path d="M487.284,358.483L486.949,357.564" fill="none"/>
    <path d="M650.247,136.452L650.783,135.886" fill="none"/>
    <path d="M493.84,414.27L494.107,415.117L494.308,416.176" fill="none"/>
    <path d="M109.243,286.632L110.514,286.067" fill="none"/>
    <path d="M715.808,-21.186L716.075,-22.673" fill="none"/>
    <path d="M322.38,92.513L322.447,94.636" fill="none"/>
    <path d="M615.929,172.244L616.33,171.749" fill="none"/>
    <path d="M492.97,277.021L498.255,276.668L506.015,276.032" fill="none"/>
    <path d="M463.669,323.092L473.302,333.053" fill="none"/>
    <path d="M715.741,-20.761L715.808,-21.186" fill="none"/>
    <path d="M886.866,-720.939L886.732,-710.261L885.929,-703.713" fill="none"/>
    <path d="M-335.295,517.734L-323.922,483.231L-321.246,477.374L-316.497,470.529L-316.162,469.964" fill="none"/>
    <path d="M491.967,406.291L493.84,414.27" fill="none"/>
    <path d="M848.868,-509.894L850.54,-518.921" fill="none"/>
    <path d="M321.377,70.078L321.377,70.786" fill="none"/>
    <path d="M828.865,-786.373L821.239,-799.122" fill="none"/>
    <path d="M297.293,264.299L303.18,259.493" fill="none"/>
    <path d="M607.232,181.226L610.176,178.185" fill="none"/>
    <path d="M380.916,229.592L378.708,234.823" fill="none"/>
    <path d="M859.17,-585.824L858.969,-586.962" fill="none"/>
    <path d="M317.496,47.002L317.831,48.135" fill="none"/>
    <path d="M903.724,-775.904L896.499,-761.378L890.746,-745.001" fill="none"/>
    <path d="M885.929,-703.713L885.862,-703.428" fill="none"/>
    <path d="M837.696,-745.215L834.886,-765.864" fill="none"/>
    <path d="M345.594,165.384L349.005,170.83" fill="none"/>
    <path d="M479.256,339.34L479.457,339.623" fill="none"/>
    <path d="M910.481,-788.652L909.812,-787.085L909.277,-786.088" fill="none"/>
    <path d="M-340.379,533.043L-338.84,528.387" fill="none"/>
    <path d="M487.484,277.728L489.157,277.586" fill="none"/>
    <path d="M568.097,221.956L593.183,195.865" fill="none"/>
    <path d="M892.418,-504.279L887.134,-506.411" fill="none"/>
    <path d="M594.923,194.026L606.764,181.721" fill="none"/>
    <path d="M397.573,272.074L401.052,274.618" fill="none"/>
    <path d="M0.199,323.374L1.804,323.798" fill="none"/>
    <path d="M281.907,274.123L282.91,273.699L283.847,273.417" fill="none"/>
    <path d="M737.282,-114.99L741.764,-134.765" fill="none"/>
    <path d="M318.032,25.48L317.563,28.808" fill="none"/>
    <path d="M473.101,320.054L473.168,319.559L474.105,312.07L478.119,296.949L480.259,292.709L486.414,285.219" fill="none"/>
    <path d="M377.17,241.822L377.036,242.528" fill="none"/>
    <path d="M-297.631,-814.864L-297.364,-815.291" fill="none"/>
  </g>
</svg>