<svg viewBox="-30 -190 1080 720" xmlns="http://www.w3.org/2000/svg">
  <g id="railways">
    <path d="M812.151,-287.369L816.571,-296.649" fill="none"/>
    <path d="M283.176,151.195L283.826,151.126L284.346,151.126" fill="none"/>
    <path d="M1057.723,130.622L1058.373,131.037L1059.608,131.796" fill="none"/>
    <path d="M559.233,318.083L554.293,296.224" fill="none"/>
    <path d="M433.782,140.219L435.602,140.426" fill="none"/>
    <path d="M523.093,190.745L528.033,172.801L531.153,165.415L534.143,161.688L536.418,160.307L542.398,158.444" fill="none"/>
    <path d="M496.573,176.666L519.193,198.543" fill="none"/>
    <path d="M397.642,28.817L398.227,29.922" fill="none"/>
    <path d="M-151.158,278.638L-139.003,270.086" fill="none"/>
    <path d="M1026.133,91.194L1025.158,88.707L1020.413,76.483L1015.733,68.609" fill="none"/>
    <path d="M-360.59,517.683L-341.675,501.778" fill="none"/>
    <path d="M974.522,-919.833L974.457,-919.555" fill="none"/>
    <path d="M941.697,-810.583L936.627,-801.129L921.807,-781.251L916.542,-770.479" fill="none"/>
    <path d="M825.411,-980.928L824.631,-981.694L823.981,-982.529" fill="none"/>
    <path d="M398.227,29.922L402.062,38.075" fill="none"/>
    <path d="M931.492,-643.919L929.412,-646.626L926.617,-648.571L923.497,-649.682L919.922,-649.682L916.672,-648.64L911.732,-645.724" fill="none"/>
    <path d="M363.712,139.114L368.002,136.353L376.257,133.522L386.007,133.315L391.207,134.627" fill="none"/>
    <path d="M437.942,140.771L441.972,142.014" fill="none"/>
    <path d="M295.526,151.61L296.306,151.679" fill="none"/>
    <path d="M-152.328,279.535L-151.158,278.638" fill="none"/>
    <path d="M475.253,164.656L486.108,170.109" fill="none"/>
    <path d="M901.722,-590.19L901.787,-590.606L901.917,-591.578" fill="none"/>
    <path d="M381.132,-54.465L381.392,-49.972" fill="none"/>
    <path d="M980.047,28.955L969.582,19.074L965.617,13.201L963.862,8.986L962.367,2.213" fill="none"/>
    <path d="M303.326,152.645L308.721,153.335" fill="none"/>
    <path d="M910.497,-638.92L910.757,-640.031L910.822,-640.655" fill="none"/>
    <path d="M343.887,153.404L352.727,148.089" fill="none"/>
    <path d="M616.369,114.12L628.134,101.898" fill="none"/>
    <path d="M950.732,-865.023L950.667,-864.675" fill="none"/>
    <path d="M486.108,170.109L487.668,170.868L488.448,171.282L491.178,172.732L496.573,176.666" fill="none"/>
    <path d="M378.207,-96.367L378.207,-95.952" fill="none"/>
    <path d="M532.323,202.891L533.103,200.061" fill="none"/>
    <path d="M377.297,-89.175L376.452,-80.808" fill="none"/>
    <path d="M444.052,-246.932L448.472,-243.47" fill="none"/>
    <path d="M-237.349,-935.278L-232.409,-940.288L-225.324,-943.836L-219.474,-945.158L-203.548,-946.828L-196.398,-948.916L-192.043,-951.56L-174.948,-964.017L-165.198,-971.115L-152.458,-976.544L-148.688,-978.423L-146.543,-979.536L-121.583,-991.995L-115.603,-994.431L-108.778,-996.032L-101.693,-996.45L-79.267,-994.014L-59.832,-991.856" fill="none"/>
    <path d="M-139.003,270.086L-137.638,269.052" fill="none"/>
    <path d="M548.053,242.356L547.988,241.943L547.273,238.493" fill="none"/>
    <path d="M876.761,-924.425L871.041,-931.034" fill="none"/>
    <path d="M974.457,-919.555L970.492,-908.633" fill="none"/>
    <path d="M381.392,-49.211L381.717,-41.883" fill="none"/>
    <path d="M-22.522,207.928L-7.767,202.201L-4.712,201.441L0.813,201.372" fill="none"/>
    <path d="M834.901,-157.791L835.811,-158.69L836.396,-159.382" fill="none"/>
    <path d="M856.416,-426.773L856.546,-427.258" fill="none"/>
    <path d="M437.032,122.544L436.707,127.377L437.422,132.417L439.437,137.595L441.972,142.014" fill="none"/>
    <path d="M836.396,-159.382L840.751,-164.364L841.206,-165.125L846.016,-173.428L857.131,-189.136" fill="none"/>
    <path d="M880.466,-920.25L876.761,-924.425" fill="none"/>
    <path d="M547.598,264.223L548.183,269.879L551.693,284.777" fill="none"/>
    <path d="M465.763,157.96L466.153,158.236" fill="none"/>
    <path d="M523.353,200.13L523.028,196.611" fill="none"/>
    <path d="M788.946,-198.548L789.336,-200.278" fill="none"/>
    <path d="M983.557,-631.769L982.582,-631.283" fill="none"/>
    <path d="M381.782,-41.123L381.977,-36.077" fill="none"/>
    <path d="M412.397,-265.695L413.177,-265.279" fill="none"/>
    <path d="M548.703,246.082L548.053,242.356" fill="none"/>
    <path d="M365.402,-137.521L364.232,-142.502L364.167,-142.778L363.452,-146.03" fill="none"/>
    <path d="M363.192,139.46L363.712,139.114" fill="none"/>
    <path d="M803.441,-140.634L806.691,-137.936L807.991,-137.452L809.811,-136.829L812.086,-136.691L817.351,-138.351L825.801,-147.759L834.901,-157.791" fill="none"/>
    <path d="M709.71,17.071L710.23,16.449" fill="none"/>
    <path d="M170.53,166.036L176.575,163.206L182.815,161.688L194.97,161.274" fill="none"/>
    <path d="M402.062,38.075L402.127,38.282L402.387,38.697" fill="none"/>
    <path d="M781.406,-165.54L781.666,-166.232" fill="none"/>
    <path d="M789.531,-201.247L797.071,-234.471" fill="none"/>
    <path d="M519.193,198.543L520.038,199.44" fill="none"/>
    <path d="M444.247,143.049L457.053,151.679" fill="none"/>
    <path d="M376.517,-79.563L377.492,-72.995" fill="none"/>
    <path d="M18.234,207.79L18.819,207.928" fill="none"/>
    <path d="M547.793,162.033L548.183,161.481L548.703,160.86" fill="none"/>
    <path d="M551.693,284.777L551.823,285.673L552.018,286.294" fill="none"/>
    <path d="M950.667,-864.675L948.132,-854.036L947.027,-845.414" fill="none"/>
    <path d="M559.428,319.117L559.233,318.083" fill="none"/>
    <path d="M785.306,-182.631L785.631,-183.946" fill="none"/>
    <path d="M438.722,114.88L438.527,115.57" fill="none"/>
    <path d="M1059.608,131.796L1080.798,146.363L1082.683,147.675L1086.453,150.16L1098.738,164.725" fill="none"/>
    <path d="M377.622,-91.181L377.427,-90.074L377.297,-89.175" fill="none"/>
    <path d="M1228.155,-539.257L1220.289,-540.229L1202.089,-540.645L1197.084,-542.102L1179.599,-550.775L1172.319,-555.978L1170.759,-557.505L1170.694,-557.505L1152.624,-574.645L1132.084,-594.146L1123.569,-600.254L1113.169,-604.974L1089.378,-612.193L1089.313,-612.331L1074.558,-616.774L1071.308,-618.579L1070.398,-619.134L1056.878,-626.909L1047.973,-630.45L1015.798,-638.434L1012.938,-638.989L1007.218,-639.614L1000.978,-638.434L983.557,-631.769" fill="none"/>
    <path d="M573.469,148.986L574.704,147.951" fill="none"/>
    <path d="M309.176,153.404L329.651,155.82L335.891,155.613L341.937,154.095" fill="none"/>
    <path d="M544.673,227.11L544.413,213.103L545.258,206.893L545.323,206.479" fill="none"/>
    <path d="M720.825,3.596L744.16,-27.091" fill="none"/>
    <path d="M-56.777,-991.578L-41.827,-990.255L-36.497,-990.742L-30.712,-992.622L-26.747,-994.64L15.634,-1022.416L43.584,-1036.48" fill="none"/>
    <path d="M931.492,-643.919L927.787,-651.07L927.007,-653.639L926.617,-654.959L926.877,-680.236L926.942,-685.514L926.227,-690.306L924.992,-694.057L919.142,-705.864" fill="none"/>
    <path d="M823.981,-982.529L823.656,-982.808" fill="none"/>
    <path d="M982.582,-631.283L971.012,-625.174L966.722,-623.647L961.197,-623.161L956.582,-623.577" fill="none"/>
    <path d="M816.571,-296.649L816.961,-297.48L817.351,-298.311" fill="none"/>
    <path d="M194.97,161.274L195.88,161.274L197.31,161.274" fill="none"/>
    <path d="M548.898,248.358L548.833,247.875L548.768,246.565" fill="none"/>
    <path d="M859.926,-438.558L860.186,-439.32L860.511,-440.152" fill="none"/>
    <path d="M355.197,-211.836L355.132,-213.636" fill="none"/>
    <path d="M-80.047,229.386L-78.877,229.11" fill="none"/>
    <path d="M744.81,-27.989L746.63,-30.754" fill="none"/>
    <path d="M561.899,330.148L559.428,319.117" fill="none"/>
    <path d="M409.017,50.787L410.252,52.03L415.647,57.695L417.337,58.869L422.992,62.737L425.137,64.119" fill="none"/>
    <path d="M63.084,204.064L72.574,205.72L80.049,204.271L85.704,201.372L94.479,193.712L100.849,189.572" fill="none"/>
    <path d="M856.546,-427.258L859.926,-438.558" fill="none"/>
    <path d="M355.977,-197.856L355.197,-211.836" fill="none"/>
    <path d="M536.223,216.07L534.533,213.241" fill="none"/>
    <path d="M457.053,151.679L457.573,152.093" fill="none"/>
    <path d="M119.374,184.12L121.909,183.568" fill="none"/>
    <path d="M369.952,-125.623L370.407,-124.586L370.732,-123.894" fill="none"/>
    <path d="M435.602,140.426L437.357,140.564" fill="none"/>
    <path d="M-287.789,426.703L-283.239,419.469L-280.704,414.026" fill="none"/>
    <path d="M353.377,147.537L357.277,144.361" fill="none"/>
    <path d="M653.224,75.861L654.914,74.065" fill="none"/>
    <path d="M354.742,-222.772L354.742,-230.317L356.302,-236.686" fill="none"/>
    <path d="M913.162,-760.889L912.837,-759.499" fill="none"/>
    <path d="M914.917,-765.475L915.112,-765.962L916.542,-770.479" fill="none"/>
    <path d="M789.336,-200.278L789.531,-201.247" fill="none"/>
    <path d="M425.137,64.119L428.517,66.467" fill="none"/>
    <path d="M811.371,-285.637L812.021,-287.022" fill="none"/>
    <path d="M-256.134,349.933L-237.934,325.46" fill="none"/>
    <path d="M521.663,201.027L523.678,203.098" fill="none"/>
    <path d="M-46.052,217.036L-44.557,216.415" fill="none"/>
    <path d="M375.152,-113.865L377.297,-108.885L378.597,-101.831" fill="none"/>
    <path d="M710.815,15.827L720.11,4.563" fill="none"/>
    <path d="M906.337,-615.663L908.027,-624.896" fill="none"/>
    <path d="M746.63,-30.754L751.57,-40.224L753.975,-47.137" fill="none"/>
    <path d="M615.264,115.225L616.369,114.12" fill="none"/>
    <path d="M908.222,-626.007L908.872,-629.894" fill="none"/>
    <path d="M991.487,44.569L990.967,43.947L990.382,43.326" fill="none"/>
    <path d="M356.042,-195.918L355.977,-197.856" fill="none"/>
    <path d="M670.189,58.178L671.555,56.797L672.205,56.037L672.985,55.277" fill="none"/>
    <path d="M135.82,180.876L136.665,180.807" fill="none"/>
    <path d="M433.197,69.368L438.527,73.72" fill="none"/>
    <path d="M795.836,-272.134L799.866,-267.91L801.881,-264.033" fill="none"/>
    <path d="M894.767,-887L892.622,-896.877L889.371,-905.502" fill="none"/>
    <path d="M398.747,136.56L400.112,136.974" fill="none"/>
    <path d="M356.302,-236.686L357.277,-238.763L358.447,-241.186L358.902,-242.293" fill="none"/>
    <path d="M239.236,156.235L239.886,156.166L240.341,156.028" fill="none"/>
    <path d="M545.648,205.513L554.878,173.491L561.248,162.033L566.059,156.028" fill="none"/>
    <path d="M674.09,54.172L675.91,52.237" fill="none"/>
    <path d="M809.551,-1001.183L815.726,-1020.188L815.726,-1020.258L818.196,-1027.847L818.391,-1036.48" fill="none"/>
    <path d="M540.643,220.969L542.398,222.832L544.673,227.11" fill="none"/>
    <path d="M783.486,-165.333L784.461,-161.389L785.696,-159.175L789.791,-154.954L789.921,-154.747L802.596,-141.464" fill="none"/>
    <path d="M566.059,156.028L571.064,150.919" fill="none"/>
    <path d="M536.223,216.07L539.278,219.313" fill="none"/>
    <path d="M352.727,148.089L353.377,147.537" fill="none"/>
    <path d="M884.626,-496.25L886.121,-487.234" fill="none"/>
    <path d="M-334.005,495.443L-323.475,486.077L-319.51,480.293L-302.544,449.712L-288.439,427.736" fill="none"/>
    <path d="M426.437,140.426L427.152,140.288" fill="none"/>
    <path d="M373.787,-257.04L382.822,-264.725L385.877,-266.595L390.037,-268.534L394.912,-269.641L403.817,-269.226L407.847,-268.118L412.397,-265.695" fill="none"/>
    <path d="M466.153,158.236L474.473,164.104" fill="none"/>
    <path d="M459.263,-234.055L459.653,-233.779" fill="none"/>
    <path d="M906.077,-614.345L906.337,-615.663" fill="none"/>
    <path d="M533.753,212.137L532.063,208.756L532.128,203.995" fill="none"/>
    <path d="M359.682,-167.477L359.357,-169.276" fill="none"/>
    <path d="M382.042,-34.072L382.172,-31.653" fill="none"/>
    <path d="M158.635,173.905L159.61,173.215L160.845,172.387" fill="none"/>
    <path d="M380.222,-62.554L380.352,-61.863L380.612,-60.48" fill="none"/>
    <path d="M-275.569,398.591L-275.309,397.695" fill="none"/>
    <path d="M860.511,-440.152L880.791,-484.737L884.626,-496.25" fill="none"/>
    <path d="M118.464,184.189L118.919,184.189L119.374,184.12" fill="none"/>
    <path d="M360.072,-165.471L359.747,-167.062L359.682,-167.477" fill="none"/>
    <path d="M432.937,69.299L433.197,69.368" fill="none"/>
    <path d="M41.569,204.685L43.584,204.064" fill="none"/>
    <path d="M1037.833,117.159L1042.903,121.301L1056.878,130.07L1057.723,130.622" fill="none"/>
    <path d="M801.881,-264.033L802.791,-259.186" fill="none"/>
    <path d="M378.207,-95.952L378.077,-94.569" fill="none"/>
    <path d="M969.257,-906.128L964.317,-896.946" fill="none"/>
    <path d="M801.751,-254.755L802.791,-259.186" fill="none"/>
    <path d="M465.503,-230.664L467.258,-230.04L470.248,-229.002L472.848,-228.241L474.343,-227.687L495.273,-228.102L496.898,-228.241L499.368,-228.241L501.643,-227.618L503.333,-227.064L513.928,-224.157L527.188,-215.989L527.448,-215.851L539.148,-207.13L551.173,-199.24L555.073,-197.717L555.398,-197.51L560.858,-195.434L563.264,-195.088L569.309,-194.395L579.774,-195.918L582.179,-197.302L583.999,-198.34L584.974,-198.963L587.574,-200.555L594.074,-205.607" fill="none"/>
    <path d="M240.341,156.028L254.641,153.128L272.061,151.886" fill="none"/>
    <path d="M391.272,15.481L391.467,15.758" fill="none"/>
    <path d="M794.016,-1033.138L792.521,-1036.48" fill="none"/>
    <path d="M413.177,-265.279L444.052,-246.932" fill="none"/>
    <path d="M967.957,-1002.367L969.777,-979.676L973.417,-964.295" fill="none"/>
    <path d="M-172.673,292.845L-166.173,289.328L-153.108,280.087" fill="none"/>
    <path d="M912.252,-756.442L905.362,-808.08" fill="none"/>
    <path d="M768.86,-111.513L775.685,-140.772" fill="none"/>
    <path d="M1027.823,98.721L1026.133,91.194" fill="none"/>
    <path d="M931.492,-643.919L934.547,-638.781L937.342,-634.129L941.437,-630.172L946.377,-626.84" fill="none"/>
    <path d="M967.957,-1002.576L967.957,-1002.367" fill="none"/>
    <path d="M574.704,147.951L577.304,145.949" fill="none"/>
    <path d="M428.517,66.467L432.937,69.299" fill="none"/>
    <path d="M380.612,-60.48L381.132,-55.088" fill="none"/>
    <path d="M548.898,248.358L547.598,261.809" fill="none"/>
    <path d="M962.367,2.213L962.237,0.693" fill="none"/>
    <path d="M714.585,-284.876L722.71,-285.222L742.86,-288.961L747.995,-289.446L753.845,-289.238L759.435,-288.061L767.56,-284.806" fill="none"/>
    <path d="M768.535,-110.13L768.86,-111.513" fill="none"/>
    <path d="M374.567,-115.041L374.827,-114.487L375.152,-113.865" fill="none"/>
    <path d="M-51.837,219.313L-46.052,217.036" fill="none"/>
    <path d="M910.822,-640.655L911.732,-645.724" fill="none"/>
    <path d="M405.377,44.984L405.637,45.329" fill="none"/>
    <path d="M830.091,-327.055L830.351,-327.887" fill="none"/>
    <path d="M533.298,213.103L534.143,214" fill="none"/>
    <path d="M744.16,-27.091L744.81,-27.989" fill="none"/>
    <path d="M945.857,-823.443L943.777,-815.379L942.217,-811.834" fill="none"/>
    <path d="M382.952,-14.857L384.317,-3.661" fill="none"/>
    <path d="M846.341,-387.542L850.241,-402.651" fill="none"/>
    <path d="M823.656,-982.808L818.131,-989.141L809.551,-1001.183" fill="none"/>
    <path d="M384.447,-2.97L387.502,6.982L391.272,15.481" fill="none"/>
    <path d="M764.245,-91.388L764.375,-92.149L764.505,-92.84" fill="none"/>
    <path d="M136.665,180.807L150.705,177.632L158.635,173.905" fill="none"/>
    <path d="M546.948,237.596L544.673,227.11" fill="none"/>
    <path d="M901.917,-591.578L906.077,-614.345" fill="none"/>
    <path d="M-174.298,293.466L-172.673,292.845" fill="none"/>
    <path d="M-153.108,280.087L-152.328,279.535" fill="none"/>
    <path d="M445.742,95.752L445.482,97.409L445.287,98.307" fill="none"/>
    <path d="M-188.273,295.811L-181.123,295.259L-174.298,293.466" fill="none"/>
    <path d="M850.241,-402.651L850.371,-403.275" fill="none"/>
    <path d="M914.917,-765.475L913.162,-760.889" fill="none"/>
    <path d="M962.757,-6.563L963.992,-12.23L964.187,-13.267L964.317,-13.751L964.902,-16.585L965.162,-18.52L966.397,-27.298L965.812,-37.114L962.822,-45.685L961.132,-49.142L957.622,-53.774L952.032,-59.028L936.107,-68.984L931.102,-73.686L928.372,-77.835L927.397,-79.149L922.392,-89.659L922.197,-90.42L921.547,-91.803L920.637,-94.223L916.737,-103.767L916.087,-106.188L914.137,-112.343L911.732,-119.813L910.367,-124.309L907.962,-130.534L904.582,-139.735L904.582,-139.735L896.327,-161.942L895.872,-163.049L895.222,-172.736L895.742,-176.196L901.007,-211.421L901.007,-211.698L901.462,-215.02L905.167,-228.033L917.842,-261.194L918.492,-262.717L923.302,-275.666L924.797,-279.405L925.317,-280.859L926.747,-284.529L928.177,-292.84L928.437,-300.596L926.357,-320.128L922.717,-340.633L922.262,-343.335L921.677,-345.691L921.027,-349.155L918.297,-361.695L917.127,-367.1L916.347,-373.683L916.347,-374.999L916.282,-378.395L916.022,-390.661L916.022,-391.077L916.737,-401.542L916.607,-408.889L916.087,-412.562L915.372,-416.999L907.832,-442.093L907.832,-442.093L904.972,-451.384L898.862,-463.032L894.702,-468.025L889.826,-477.941L888.656,-480.23L886.121,-487.234" fill="none"/>
    <path d="M439.372,74.756L442.362,78.9" fill="none"/>
    <path d="M539.473,219.658L540.643,220.969" fill="none"/>
    <path d="M355.132,-213.636L355.002,-220.627" fill="none"/>
    <path d="M545.323,206.479L545.648,205.513" fill="none"/>
    <path d="M381.717,-41.883L381.782,-41.123" fill="none"/>
    <path d="M803.441,-262.025L805.976,-270.819L807.926,-277.535L811.371,-285.637" fill="none"/>
    <path d="M812.021,-287.022L812.151,-287.369" fill="none"/>
    <path d="M870.131,-932.078L825.411,-980.928" fill="none"/>
    <path d="M3.413,201.994L18.234,207.79" fill="none"/>
    <path d="M308.721,153.335L309.176,153.404" fill="none"/>
    <path d="M782.576,-170.591L783.421,-165.886" fill="none"/>
    <path d="M362.867,-149.766L362.412,-152.187L362.022,-154.954" fill="none"/>
    <path d="M762.295,-83.228L764.245,-91.388" fill="none"/>
    <path d="M101.304,189.365L107.349,186.742L118.464,184.189" fill="none"/>
    <path d="M802.791,-259.186L803.376,-256.14" fill="none"/>
    <path d="M966.852,-1022.764L967.957,-1002.576" fill="none"/>
    <path d="M168.45,167.072L169.23,166.658" fill="none"/>
    <path d="M272.711,151.886L283.176,151.195" fill="none"/>
    <path d="M296.306,151.679L301.116,152.3" fill="none"/>
    <path d="M946.377,-626.84L947.092,-626.423" fill="none"/>
    <path d="M547.598,261.809L547.598,262.982L547.598,264.223" fill="none"/>
    <path d="M577.304,145.949L578.409,145.12" fill="none"/>
    <path d="M964.317,-896.946L963.992,-896.529L963.667,-895.903" fill="none"/>
    <path d="M884.626,-496.25L887.031,-506.446" fill="none"/>
    <path d="M520.038,199.44L520.753,200.13L521.663,201.027" fill="none"/>
    <path d="M774.84,-281.759L787.906,-276.081" fill="none"/>
    <path d="M779.065,-155.024L781.406,-165.54" fill="none"/>
    <path d="M445.937,89.882L445.742,95.752" fill="none"/>
    <path d="M542.398,158.444L547.533,157.753" fill="none"/>
    <path d="M-237.219,324.633L-225.259,311.188L-218.109,304.361L-212.649,300.844L-206.733,298.224L-199.323,296.5L-188.273,295.811" fill="none"/>
    <path d="M377.817,-71.888L380.092,-63.177" fill="none"/>
    <path d="M-340.05,500.469L-334.005,495.443" fill="none"/>
    <path d="M785.631,-183.946L788.946,-198.548" fill="none"/>
    <path d="M384.317,-3.661L384.447,-2.97" fill="none"/>
    <path d="M787.906,-276.081L794.341,-272.965L795.836,-272.134" fill="none"/>
    <path d="M366.962,-132.54L365.402,-137.521" fill="none"/>
    <path d="M-237.934,325.46L-237.219,324.633" fill="none"/>
    <path d="M705.29,21.838L709.71,17.071" fill="none"/>
    <path d="M-288.439,427.736L-288.114,427.254L-287.789,426.703" fill="none"/>
    <path d="M523.028,196.611L523.028,195.783" fill="none"/>
    <path d="M100.849,189.572L101.304,189.365" fill="none"/>
    <path d="M830.351,-327.887L834.316,-340.425L845.821,-385.394" fill="none"/>
    <path d="M852.386,-410.83L852.711,-412.285" fill="none"/>
    <path d="M366.962,-132.54L369.952,-125.623" fill="none"/>
    <path d="M361.762,-245.824L363.907,-247.97L366.962,-250.809" fill="none"/>
    <path d="M444.312,101.553L442.622,105.627" fill="none"/>
    <path d="M-24.147,208.549L-22.977,207.997L-22.522,207.928" fill="none"/>
    <path d="M442.362,78.9L443.012,79.936" fill="none"/>
    <path d="M809.551,-1001.183L803.246,-1012.739L794.601,-1031.815" fill="none"/>
    <path d="M773.735,-282.244L774.84,-281.759" fill="none"/>
    <path d="M548.703,160.86L549.613,160.1L552.993,157.063" fill="none"/>
    <path d="M459.653,-233.779L465.503,-230.664" fill="none"/>
    <path d="M891.387,-531.14L901.722,-590.19" fill="none"/>
    <path d="M463.033,156.028L465.763,157.96" fill="none"/>
    <path d="M899.707,-849.725L897.822,-864.189" fill="none"/>
    <path d="M427.152,140.288L433.782,140.219" fill="none"/>
    <path d="M229.55,158.375L239.236,156.235" fill="none"/>
    <path d="M767.56,-284.806L773.735,-282.244" fill="none"/>
    <path d="M962.237,0.693L962.757,-6.563" fill="none"/>
    <path d="M532.128,203.995L532.323,202.891" fill="none"/>
    <path d="M381.977,-36.077L381.977,-35.109L382.042,-34.072" fill="none"/>
    <path d="M442.622,105.627L441.387,108.458L440.932,109.632" fill="none"/>
    <path d="M776.075,-142.709L776.92,-146.099L777.115,-146.722" fill="none"/>
    <path d="M-360.59,-741.92L-359.81,-742.545L-351.815,-746.853L-318.665,-757.554L-318.6,-757.554L-302.089,-762.904L-296.044,-765.475L-290.649,-769.575L-285.189,-776.386L-282.134,-783.753L-276.219,-811.556L-276.219,-811.625L-272.514,-829.005L-258.734,-865.023L-247.814,-893.677L-246.124,-900.981L-245.344,-914.476L-244.499,-920.32L-241.314,-928.808L-239.624,-931.73L-237.609,-934.861" fill="none"/>
    <path d="M942.217,-811.834L942.022,-811.347L941.697,-810.583" fill="none"/>
    <path d="M973.742,-962.973L975.497,-956.292L976.992,-947.176L977.317,-939.662L976.537,-929.295L974.522,-919.833" fill="none"/>
    <path d="M363.452,-146.03L362.867,-149.766" fill="none"/>
    <path d="M438.527,115.57L437.942,117.573" fill="none"/>
    <path d="M-278.819,408.376L-275.569,398.591" fill="none"/>
    <path d="M197.31,161.274L215.25,161.067L229.55,158.375" fill="none"/>
    <path d="M380.092,-63.177L380.222,-62.554" fill="none"/>
    <path d="M956.582,-623.577L955.347,-623.785L953.332,-624.202L952.422,-624.271" fill="none"/>
    <path d="M437.877,117.987L437.227,121.785" fill="none"/>
    <path d="M-44.557,216.415L-33.897,212.275" fill="none"/>
    <path d="M564.109,354.069L563.329,338.421L561.899,330.148" fill="none"/>
    <path d="M889.371,-905.502L888.916,-906.407" fill="none"/>
    <path d="M294.421,151.472L295.526,151.61" fill="none"/>
    <path d="M546.428,165.208L547.793,162.033" fill="none"/>
    <path d="M523.613,201.994L523.418,200.682L523.353,200.13" fill="none"/>
    <path d="M887.031,-506.446L887.031,-506.654L887.096,-506.862" fill="none"/>
    <path d="M272.061,151.886L272.711,151.886" fill="none"/>
    <path d="M160.845,172.387L168.45,167.072" fill="none"/>
    <path d="M594.074,-205.607L596.739,-208.029L598.169,-210.313L599.014,-211.49L600.639,-214.051L605.059,-223.049L605.384,-223.88L614.809,-243.055L617.084,-247.624L618.124,-249.77" fill="none"/>
    <path d="M797.071,-234.471L797.266,-234.955" fill="none"/>
    <path d="M666.809,61.701L667.264,61.218" fill="none"/>
    <path d="M614.549,116.054L615.264,115.225" fill="none"/>
    <path d="M381.132,-55.088L381.132,-54.465" fill="none"/>
    <path d="M549.158,157.546L552.993,157.063" fill="none"/>
    <path d="M391.207,134.627L398.747,136.56" fill="none"/>
    <path d="M803.376,-256.14L803.506,-251.917L801.881,-244.786L797.071,-234.471" fill="none"/>
    <path d="M894.897,-885.887L894.832,-886.374L894.767,-887" fill="none"/>
    <path d="M919.012,-706.976L912.252,-756.442" fill="none"/>
    <path d="M871.041,-931.034L870.651,-931.451L870.131,-932.078" fill="none"/>
    <path d="M781.666,-166.232L782.576,-170.591" fill="none"/>
    <path d="M378.597,-101.139L378.207,-96.367" fill="none"/>
    <path d="M676.365,51.754L703.535,23.842" fill="none"/>
    <path d="M362.022,-154.954L360.072,-165.471" fill="none"/>
    <path d="M461.018,154.647L461.668,155.061L462.253,155.406" fill="none"/>
    <path d="M829.831,-326.432L830.091,-327.055" fill="none"/>
    <path d="M794.601,-1031.815L794.016,-1033.138" fill="none"/>
    <path d="M672.985,55.277L674.09,54.172" fill="none"/>
    <path d="M382.237,-29.51L382.367,-27.505" fill="none"/>
    <path d="M358.902,-242.293L361.762,-245.824" fill="none"/>
    <path d="M400.112,136.974L414.802,140.702L419.677,140.978L426.437,140.426" fill="none"/>
    <path d="M887.096,-506.862L891.387,-531.14" fill="none"/>
    <path d="M462.253,155.406L463.033,156.028" fill="none"/>
    <path d="M899.902,-848.195L899.707,-849.725" fill="none"/>
    <path d="M359.357,-169.276L356.432,-188.236L356.042,-195.918" fill="none"/>
    <path d="M523.028,195.783L523.093,191.78L523.093,190.745" fill="none"/>
    <path d="M990.382,43.326L985.052,35.864" fill="none"/>
    <path d="M523.678,203.098L523.613,201.994" fill="none"/>
    <path d="M777.115,-146.722L779.065,-155.024" fill="none"/>
    <path d="M0.813,201.372L1.723,201.579L3.413,201.994" fill="none"/>
    <path d="M534.533,213.241L533.753,212.137" fill="none"/>
    <path d="M393.872,20.871L397.447,28.402L397.642,28.817" fill="none"/>
    <path d="M-59.832,-991.856L-58.207,-991.717L-56.777,-991.578" fill="none"/>
    <path d="M852.711,-412.285L856.416,-426.773" fill="none"/>
    <path d="M973.417,-964.295L973.742,-962.973" fill="none"/>
    <path d="M378.597,-101.831L378.597,-101.139" fill="none"/>
    <path d="M1027.823,98.721L1031.073,108.389L1036.468,115.985" fill="none"/>
    <path d="M43.584,204.064L50.799,202.684L60.224,203.374" fill="none"/>
    <path d="M578.409,145.12L600.769,129.794L614.549,116.054" fill="none"/>
    <path d="M121.909,183.568L135.82,180.876" fill="none"/>
    <path d="M753.975,-47.137L754.43,-48.866" fill="none"/>
    <path d="M382.432,-25.363L382.822,-16.17L382.952,-14.857" fill="none"/>
    <path d="M802.791,-259.186L803.441,-262.025" fill="none"/>
    <path d="M445.287,98.307L444.312,101.553" fill="none"/>
    <path d="M-280.704,414.026L-280.379,413.061" fill="none"/>
    <path d="M376.452,-80.808L376.517,-79.563" fill="none"/>
    <path d="M-33.897,212.275L-24.147,208.549" fill="none"/>
    <path d="M966.137,-1036.48L966.852,-1022.764" fill="none"/>
    <path d="M61.784,203.788L63.084,204.064" fill="none"/>
    <path d="M908.027,-624.896L908.222,-626.007" fill="none"/>
    <path d="M445.222,85.876L445.547,87.879L445.937,89.882" fill="none"/>
    <path d="M817.351,-298.311L825.021,-314.587L829.831,-326.432" fill="none"/>
    <path d="M571.064,150.919L571.909,150.16L573.014,149.401L573.469,148.986" fill="none"/>
    <path d="M720.11,4.563L720.825,3.596" fill="none"/>
    <path d="M20.184,208.135L27.724,208.204L41.569,204.685" fill="none"/>
    <path d="M438.527,73.72L439.372,74.756" fill="none"/>
    <path d="M618.124,-249.77L619.684,-253.232L619.879,-253.509L621.244,-256.555L622.934,-260.294L623.259,-260.986L627.744,-270.819L633.984,-280.928L634.439,-281.482L637.234,-284.599L637.624,-285.014L638.664,-286.33L646.334,-291.524L649.064,-292.632L650.169,-292.978L654.199,-294.502L661.219,-295.956L666.354,-295.748L667.784,-295.471L668.954,-295.264L677.6,-293.324L678.835,-292.909L681.63,-292.009L681.76,-292.009L685.335,-290.901L688.39,-289.862L688.39,-289.862L693.135,-288.477L694.63,-287.923L698.27,-286.815L699.895,-286.33L704.64,-285.222L713.545,-284.876L714.585,-284.876" fill="none"/>
    <path d="M-55.347,220.624L-51.837,219.313" fill="none"/>
    <path d="M850.956,-405.701L852.386,-410.83" fill="none"/>
    <path d="M783.421,-165.886L783.486,-165.333" fill="none"/>
    <path d="M912.837,-759.499L912.252,-756.442" fill="none"/>
    <path d="M764.505,-92.84L768.535,-110.13" fill="none"/>
    <path d="M-341.675,501.778L-340.83,501.158L-340.05,500.469" fill="none"/>
    <path d="M284.346,151.126L294.421,151.472" fill="none"/>
    <path d="M802.596,-141.464L803.441,-140.634" fill="none"/>
    <path d="M985.052,35.864L982.842,32.755L982.712,32.548L980.047,28.955" fill="none"/>
    <path d="M947.027,-845.414L947.027,-843.745L946.897,-840.894" fill="none"/>
    <path d="M443.012,79.936L445.222,85.876" fill="none"/>
    <path d="M534.143,214L536.223,216.07" fill="none"/>
    <path d="M437.942,117.573L437.877,117.987" fill="none"/>
    <path d="M911.732,-645.724L919.402,-691.695L919.597,-699.544L919.142,-705.864" fill="none"/>
    <path d="M382.172,-31.653L382.237,-29.51" fill="none"/>
    <path d="M845.821,-385.394L846.341,-387.542" fill="none"/>
    <path d="M703.535,23.842L705.29,21.838" fill="none"/>
    <path d="M301.116,152.3L302.156,152.507L303.326,152.645" fill="none"/>
    <path d="M905.362,-808.08L905.232,-808.914L905.102,-809.679" fill="none"/>
    <path d="M560.143,349.658L559.558,336.904L561.899,330.148" fill="none"/>
    <path d="M782.576,-170.591L785.306,-182.631" fill="none"/>
    <path d="M448.472,-243.47L459.263,-234.055" fill="none"/>
    <path d="M370.732,-123.894L374.567,-115.041" fill="none"/>
    <path d="M366.962,-250.809L371.122,-254.617L373.787,-257.04" fill="none"/>
    <path d="M548.768,246.565L548.703,246.082" fill="none"/>
    <path d="M754.43,-48.866L762.295,-83.228" fill="none"/>
    <path d="M441.972,142.014L444.247,143.049" fill="none"/>
    <path d="M1015.733,68.609L1010.923,63.635L1003.643,57.557L996.037,50.027L991.487,44.569" fill="none"/>
    <path d="M355.002,-220.627L354.742,-222.772" fill="none"/>
    <path d="M850.371,-403.275L850.956,-405.701" fill="none"/>
    <path d="M-78.877,229.11L-55.347,220.624" fill="none"/>
    <path d="M18.819,207.928L20.184,208.135" fill="none"/>
    <path d="M897.822,-864.189L897.692,-865.232" fill="none"/>
    <path d="M905.102,-809.679L899.902,-848.195" fill="none"/>
    <path d="M881.246,-919.137L880.921,-919.555L880.466,-920.25" fill="none"/>
    <path d="M437.357,140.564L437.942,140.771" fill="none"/>
    <path d="M402.387,38.697L405.377,44.984" fill="none"/>
    <path d="M1036.468,115.985L1037.183,116.537L1037.833,117.159" fill="none"/>
    <path d="M-137.638,269.052L-125.158,260.085L-105.983,243.253L-96.492,235.872L-89.602,232.215L-80.047,229.386" fill="none"/>
    <path d="M474.473,164.104L475.253,164.656" fill="none"/>
    <path d="M391.467,15.758L393.872,20.871" fill="none"/>
    <path d="M547.273,238.493L546.948,237.596" fill="none"/>
    <path d="M710.23,16.449L710.815,15.827" fill="none"/>
    <path d="M553.838,294.293L554.098,295.052L554.293,296.224" fill="none"/>
    <path d="M169.23,166.658L170.53,166.036" fill="none"/>
    <path d="M775.815,-141.187L776.075,-142.709" fill="none"/>
    <path d="M382.367,-27.505L382.432,-25.363" fill="none"/>
    <path d="M675.91,52.237L676.365,51.754" fill="none"/>
    <path d="M552.993,157.063L558.258,156.649L566.059,156.028" fill="none"/>
    <path d="M523.678,203.098L533.298,213.103" fill="none"/>
    <path d="M775.685,-140.772L775.815,-141.187" fill="none"/>
    <path d="M946.897,-840.894L946.702,-830.257L945.922,-823.722" fill="none"/>
    <path d="M-275.309,397.695L-263.934,363.237L-261.204,357.378L-256.524,350.554L-256.134,349.933" fill="none"/>
    <path d="M552.018,286.294L553.838,294.293" fill="none"/>
    <path d="M908.872,-629.894L910.497,-638.92" fill="none"/>
    <path d="M381.392,-49.972L381.392,-49.211" fill="none"/>
    <path d="M888.916,-906.407L881.246,-919.137" fill="none"/>
    <path d="M357.277,144.361L363.192,139.46" fill="none"/>
    <path d="M667.264,61.218L670.189,58.178" fill="none"/>
    <path d="M440.932,109.632L438.722,114.88" fill="none"/>
    <path d="M919.142,-705.864L919.012,-706.976" fill="none"/>
    <path d="M377.492,-72.995L377.817,-71.888" fill="none"/>
    <path d="M963.667,-895.903L956.517,-881.366L950.732,-865.023" fill="none"/>
    <path d="M945.922,-823.722L945.857,-823.443" fill="none"/>
    <path d="M897.692,-865.232L894.897,-885.887" fill="none"/>
    <path d="M405.637,45.329L409.017,50.787" fill="none"/>
    <path d="M539.278,219.313L539.473,219.658" fill="none"/>
    <path d="M970.492,-908.633L969.777,-907.102L969.257,-906.128" fill="none"/>
    <path d="M-280.379,413.061L-278.819,408.376" fill="none"/>
    <path d="M547.533,157.753L549.158,157.546" fill="none"/>
    <path d="M628.134,101.898L653.224,75.861" fill="none"/>
    <path d="M952.422,-624.271L947.092,-626.423" fill="none"/>
    <path d="M654.914,74.065L666.809,61.701" fill="none"/>
    <path d="M457.573,152.093L461.018,154.647" fill="none"/>
    <path d="M60.224,203.374L61.784,203.788" fill="none"/>
    <path d="M341.937,154.095L342.912,153.75L343.887,153.404" fill="none"/>
    <path d="M797.266,-234.955L801.751,-254.755" fill="none"/>
    <path d="M378.077,-94.569L377.622,-91.181" fill="none"/>
    <path d="M533.103,200.061L533.168,199.578L534.078,192.056L538.108,176.942L540.253,172.732L546.428,165.208" fill="none"/>
    <path d="M437.227,121.785L437.032,122.544" fill="none"/>
    <path d="M-237.609,-934.861L-237.349,-935.278" fill="none"/>
  </g>
</svg>