<svg viewBox="-20 -280 960 960" xmlns="http://www.w3.org/2000/svg">
  <g id="railways">
    <path d="M752.151,-167.369L756.571,-176.649" fill="none"/>
    <path d="M223.176,271.195L223.826,271.126L224.346,271.126" fill="none"/>
    <path d="M997.723,250.622L998.373,251.037L999.608,251.796" fill="none"/>
    <path d="M499.233,438.083L494.293,416.224" fill="none"/>
    <path d="M373.782,260.219L375.602,260.426" fill="none"/>
    <path d="M463.093,310.745L468.033,292.801L471.153,285.415L474.143,281.688L476.418,280.307L482.398,278.444" fill="none"/>
    <path d="M436.573,296.666L459.193,318.543" fill="none"/>
    <path d="M337.642,148.817L338.227,149.922" fill="none"/>
    <path d="M-211.158,398.638L-199.003,390.086" fill="none"/>
    <path d="M966.133,211.194L965.158,208.707L960.413,196.483L955.733,188.609" fill="none"/>
    <path d="M-420.59,637.683L-401.675,621.778" fill="none"/>
    <path d="M914.522,-799.833L914.457,-799.555" fill="none"/>
    <path d="M881.697,-690.583L876.627,-681.129L861.807,-661.251L856.542,-650.479" fill="none"/>
    <path d="M765.411,-860.928L764.631,-861.694L763.981,-862.529" fill="none"/>
    <path d="M338.227,149.922L342.062,158.075" fill="none"/>
    <path d="M871.492,-523.919L869.412,-526.626L866.617,-528.571L863.497,-529.682L859.922,-529.682L856.672,-528.64L851.732,-525.724" fill="none"/>
    <path d="M303.712,259.114L308.002,256.353L316.257,253.522L326.007,253.315L331.207,254.627" fill="none"/>
    <path d="M377.942,260.771L381.972,262.014" fill="none"/>
    <path d="M235.526,271.61L236.306,271.679" fill="none"/>
    <path d="M-212.328,399.535L-211.158,398.638" fill="none"/>
    <path d="M415.253,284.656L426.108,290.109" fill="none"/>
    <path d="M841.722,-470.19L841.787,-470.606L841.917,-471.578" fill="none"/>
    <path d="M321.132,65.535L321.392,70.028" fill="none"/>
    <path d="M920.047,148.955L909.582,139.074L905.617,133.201L903.862,128.986L902.367,122.213" fill="none"/>
    <path d="M243.326,272.645L248.721,273.335" fill="none"/>
    <path d="M850.497,-518.92L850.757,-520.031L850.822,-520.655" fill="none"/>
    <path d="M283.887,273.404L292.727,268.089" fill="none"/>
    <path d="M556.369,234.12L568.134,221.898" fill="none"/>
    <path d="M890.732,-745.023L890.667,-744.675" fill="none"/>
    <path d="M426.108,290.109L427.668,290.868L428.448,291.282L431.178,292.732L436.573,296.666" fill="none"/>
    <path d="M318.207,23.633L318.207,24.048" fill="none"/>
    <path d="M472.323,322.891L473.103,320.061" fill="none"/>
    <path d="M317.297,30.825L316.452,39.192" fill="none"/>
    <path d="M384.052,-126.932L388.472,-123.47" fill="none"/>
    <path d="M-297.349,-815.278L-292.409,-820.288L-285.324,-823.836L-279.474,-825.158L-263.548,-826.828L-256.398,-828.916L-252.043,-831.56L-234.948,-844.017L-225.198,-851.115L-212.458,-856.544L-208.688,-858.423L-206.543,-859.536L-181.583,-871.995L-175.603,-874.431L-168.778,-876.032L-161.693,-876.45L-139.267,-874.014L-119.832,-871.856" fill="none"/>
    <path d="M-199.003,390.086L-197.638,389.052" fill="none"/>
    <path d="M488.053,362.356L487.988,361.943L487.273,358.493" fill="none"/>
    <path d="M816.761,-804.425L811.041,-811.034" fill="none"/>
    <path d="M914.457,-799.555L910.492,-788.633" fill="none"/>
    <path d="M321.392,70.789L321.717,78.117" fill="none"/>
    <path d="M-82.522,327.928L-67.767,322.201L-64.712,321.441L-59.187,321.372" fill="none"/>
    <path d="M774.901,-37.791L775.811,-38.69L776.396,-39.382" fill="none"/>
    <path d="M796.416,-306.773L796.546,-307.258" fill="none"/>
    <path d="M377.032,242.544L376.707,247.377L377.422,252.417L379.437,257.595L381.972,262.014" fill="none"/>
    <path d="M776.396,-39.382L780.751,-44.364L781.206,-45.125L786.016,-53.428L797.131,-69.136" fill="none"/>
    <path d="M820.466,-800.25L816.761,-804.425" fill="none"/>
    <path d="M487.598,384.223L488.183,389.879L491.693,404.777" fill="none"/>
    <path d="M405.763,277.96L406.153,278.236" fill="none"/>
    <path d="M463.353,320.13L463.028,316.611" fill="none"/>
    <path d="M728.946,-78.548L729.336,-80.278" fill="none"/>
    <path d="M923.557,-511.769L922.582,-511.283" fill="none"/>
    <path d="M321.782,78.877L321.977,83.923" fill="none"/>
    <path d="M352.397,-145.695L353.177,-145.279" fill="none"/>
    <path d="M488.703,366.082L488.053,362.356" fill="none"/>
    <path d="M305.402,-17.521L304.232,-22.502L304.167,-22.778L303.452,-26.03" fill="none"/>
    <path d="M303.192,259.46L303.712,259.114" fill="none"/>
    <path d="M743.441,-20.634L746.691,-17.936L747.991,-17.452L749.811,-16.829L752.086,-16.691L757.351,-18.351L765.801,-27.759L774.901,-37.791" fill="none"/>
    <path d="M649.71,137.071L650.23,136.449" fill="none"/>
    <path d="M110.53,286.036L116.575,283.206L122.815,281.688L134.97,281.274" fill="none"/>
    <path d="M342.062,158.075L342.127,158.282L342.387,158.697" fill="none"/>
    <path d="M721.406,-45.54L721.666,-46.232" fill="none"/>
    <path d="M729.531,-81.247L737.071,-114.471" fill="none"/>
    <path d="M459.193,318.543L460.038,319.44" fill="none"/>
    <path d="M384.247,263.049L397.053,271.679" fill="none"/>
    <path d="M316.517,40.437L317.492,47.005" fill="none"/>
    <path d="M-41.766,327.79L-41.181,327.928" fill="none"/>
    <path d="M487.793,282.033L488.183,281.481L488.703,280.86" fill="none"/>
    <path d="M491.693,404.777L491.823,405.673L492.018,406.294" fill="none"/>
    <path d="M890.667,-744.675L888.132,-734.036L887.027,-725.414" fill="none"/>
    <path d="M499.428,439.117L499.233,438.083" fill="none"/>
    <path d="M725.306,-62.631L725.631,-63.946" fill="none"/>
    <path d="M378.722,234.88L378.527,235.57" fill="none"/>
    <path d="M999.608,251.796L1020.798,266.363L1022.683,267.675L1026.453,270.16L1038.738,284.725" fill="none"/>
    <path d="M317.622,28.819L317.427,29.926L317.297,30.825" fill="none"/>
    <path d="M1168.155,-419.257L1160.289,-420.229L1142.089,-420.645L1137.084,-422.102L1119.599,-430.775L1112.319,-435.978L1110.759,-437.505L1110.694,-437.505L1092.624,-454.645L1072.084,-474.146L1063.569,-480.254L1053.169,-484.974L1029.378,-492.193L1029.313,-492.331L1014.558,-496.774L1011.308,-498.579L1010.398,-499.134L996.878,-506.909L987.973,-510.45L955.798,-518.434L952.938,-518.989L947.218,-519.614L940.978,-518.434L923.557,-511.769" fill="none"/>
    <path d="M513.469,268.986L514.704,267.951" fill="none"/>
    <path d="M249.176,273.404L269.651,275.82L275.891,275.613L281.937,274.095" fill="none"/>
    <path d="M484.673,347.11L484.413,333.103L485.258,326.893L485.323,326.479" fill="none"/>
    <path d="M660.825,123.596L684.16,92.909" fill="none"/>
    <path d="M-116.777,-871.578L-101.827,-870.255L-96.497,-870.742L-90.712,-872.622L-86.747,-874.64L-44.366,-902.416L-16.416,-916.48" fill="none"/>
    <path d="M871.492,-523.919L867.787,-531.07L867.007,-533.639L866.617,-534.959L866.877,-560.236L866.942,-565.514L866.227,-570.306L864.992,-574.057L859.142,-585.864" fill="none"/>
    <path d="M763.981,-862.529L763.656,-862.808" fill="none"/>
    <path d="M922.582,-511.283L911.012,-505.174L906.722,-503.647L901.197,-503.161L896.582,-503.577" fill="none"/>
    <path d="M756.571,-176.649L756.961,-177.48L757.351,-178.311" fill="none"/>
    <path d="M134.97,281.274L135.88,281.274L137.31,281.274" fill="none"/>
    <path d="M488.898,368.358L488.833,367.875L488.768,366.565" fill="none"/>
    <path d="M799.926,-318.558L800.186,-319.32L800.511,-320.152" fill="none"/>
    <path d="M295.197,-91.836L295.132,-93.636" fill="none"/>
    <path d="M-140.047,349.386L-138.877,349.11" fill="none"/>
    <path d="M684.81,92.011L686.63,89.246" fill="none"/>
    <path d="M501.899,450.148L499.428,439.117" fill="none"/>
    <path d="M349.017,170.787L350.252,172.03L355.647,177.695L357.337,178.869L362.992,182.737L365.137,184.119" fill="none"/>
    <path d="M3.084,324.064L12.574,325.72L20.049,324.271L25.704,321.372L34.479,313.712L40.849,309.572" fill="none"/>
    <path d="M796.546,-307.258L799.926,-318.558" fill="none"/>
    <path d="M295.977,-77.856L295.197,-91.836" fill="none"/>
    <path d="M476.223,336.07L474.533,333.241" fill="none"/>
    <path d="M397.053,271.679L397.573,272.093" fill="none"/>
    <path d="M59.374,304.12L61.909,303.568" fill="none"/>
    <path d="M309.952,-5.623L310.407,-4.586L310.732,-3.894" fill="none"/>
    <path d="M375.602,260.426L377.357,260.564" fill="none"/>
    <path d="M-347.789,546.703L-343.239,539.469L-340.704,534.026" fill="none"/>
    <path d="M293.377,267.537L297.277,264.361" fill="none"/>
    <path d="M593.224,195.861L594.914,194.065" fill="none"/>
    <path d="M294.742,-102.772L294.742,-110.317L296.302,-116.686" fill="none"/>
    <path d="M853.162,-640.889L852.837,-639.499" fill="none"/>
    <path d="M854.917,-645.475L855.112,-645.962L856.542,-650.479" fill="none"/>
    <path d="M729.336,-80.278L729.531,-81.247" fill="none"/>
    <path d="M365.137,184.119L368.517,186.467" fill="none"/>
    <path d="M751.371,-165.637L752.021,-167.022" fill="none"/>
    <path d="M-316.134,469.933L-297.934,445.46" fill="none"/>
    <path d="M461.663,321.027L463.678,323.098" fill="none"/>
    <path d="M-106.052,337.036L-104.557,336.415" fill="none"/>
    <path d="M315.152,6.135L317.297,11.115L318.597,18.169" fill="none"/>
    <path d="M650.815,135.827L660.11,124.563" fill="none"/>
    <path d="M846.337,-495.663L848.027,-504.896" fill="none"/>
    <path d="M686.63,89.246L691.57,79.776L693.975,72.863" fill="none"/>
    <path d="M555.264,235.225L556.369,234.12" fill="none"/>
    <path d="M848.222,-506.007L848.872,-509.894" fill="none"/>
    <path d="M931.487,164.569L930.967,163.947L930.382,163.326" fill="none"/>
    <path d="M296.042,-75.918L295.977,-77.856" fill="none"/>
    <path d="M610.189,178.178L611.555,176.797L612.205,176.037L612.985,175.277" fill="none"/>
    <path d="M75.82,300.876L76.665,300.807" fill="none"/>
    <path d="M373.197,189.368L378.527,193.72" fill="none"/>
    <path d="M735.836,-152.134L739.866,-147.91L741.881,-144.033" fill="none"/>
    <path d="M834.767,-767L832.622,-776.877L829.371,-785.502" fill="none"/>
    <path d="M338.747,256.56L340.112,256.974" fill="none"/>
    <path d="M296.302,-116.686L297.277,-118.763L298.447,-121.186L298.902,-122.293" fill="none"/>
    <path d="M179.236,276.235L179.886,276.166L180.341,276.028" fill="none"/>
    <path d="M485.648,325.513L494.878,293.491L501.248,282.033L506.059,276.028" fill="none"/>
    <path d="M614.09,174.172L615.91,172.237" fill="none"/>
    <path d="M749.551,-881.183L755.726,-900.188L755.726,-900.258L758.196,-907.847L758.391,-916.48" fill="none"/>
    <path d="M480.643,340.969L482.398,342.832L484.673,347.11" fill="none"/>
    <path d="M723.486,-45.333L724.461,-41.389L725.696,-39.175L729.791,-34.954L729.921,-34.747L742.596,-21.464" fill="none"/>
    <path d="M506.059,276.028L511.064,270.919" fill="none"/>
    <path d="M476.223,336.07L479.278,339.313" fill="none"/>
    <path d="M292.727,268.089L293.377,267.537" fill="none"/>
    <path d="M824.626,-376.25L826.121,-367.234" fill="none"/>
    <path d="M-394.005,615.443L-383.475,606.077L-379.51,600.293L-362.544,569.712L-348.439,547.736" fill="none"/>
    <path d="M366.437,260.426L367.152,260.288" fill="none"/>
    <path d="M313.787,-137.04L322.822,-144.725L325.877,-146.595L330.037,-148.534L334.912,-149.641L343.817,-149.226L347.847,-148.118L352.397,-145.695" fill="none"/>
    <path d="M406.153,278.236L414.473,284.104" fill="none"/>
    <path d="M399.263,-114.055L399.653,-113.779" fill="none"/>
    <path d="M846.077,-494.345L846.337,-495.663" fill="none"/>
    <path d="M473.753,332.137L472.063,328.756L472.128,323.995" fill="none"/>
    <path d="M299.682,-47.477L299.357,-49.276" fill="none"/>
    <path d="M322.042,85.928L322.172,88.347" fill="none"/>
    <path d="M98.635,293.905L99.61,293.215L100.845,292.387" fill="none"/>
    <path d="M320.222,57.446L320.352,58.137L320.612,59.52" fill="none"/>
    <path d="M-335.569,518.591L-335.309,517.695" fill="none"/>
    <path d="M800.511,-320.152L820.791,-364.737L824.626,-376.25" fill="none"/>
    <path d="M58.464,304.189L58.919,304.189L59.374,304.12" fill="none"/>
    <path d="M300.072,-45.471L299.747,-47.062L299.682,-47.477" fill="none"/>
    <path d="M372.937,189.299L373.197,189.368" fill="none"/>
    <path d="M-18.431,324.685L-16.416,324.064" fill="none"/>
    <path d="M977.833,237.159L982.903,241.301L996.878,250.07L997.723,250.622" fill="none"/>
    <path d="M741.881,-144.033L742.791,-139.186" fill="none"/>
    <path d="M318.207,24.048L318.077,25.431" fill="none"/>
    <path d="M909.257,-786.128L904.317,-776.946" fill="none"/>
    <path d="M741.751,-134.755L742.791,-139.186" fill="none"/>
    <path d="M405.503,-110.664L407.258,-110.04L410.248,-109.002L412.848,-108.241L414.343,-107.687L435.273,-108.102L436.898,-108.241L439.368,-108.241L441.643,-107.618L443.333,-107.064L453.928,-104.157L467.188,-95.989L467.448,-95.851L479.148,-87.13L491.173,-79.24L495.073,-77.717L495.398,-77.51L500.858,-75.434L503.264,-75.088L509.309,-74.395L519.774,-75.918L522.179,-77.302L523.999,-78.34L524.974,-78.963L527.574,-80.555L534.074,-85.607" fill="none"/>
    <path d="M180.341,276.028L194.641,273.128L212.061,271.886" fill="none"/>
    <path d="M331.272,135.481L331.467,135.758" fill="none"/>
    <path d="M734.016,-913.138L732.521,-916.48" fill="none"/>
    <path d="M353.177,-145.279L384.052,-126.932" fill="none"/>
    <path d="M907.957,-882.367L909.777,-859.676L913.417,-844.295" fill="none"/>
    <path d="M-232.673,412.845L-226.173,409.328L-213.108,400.087" fill="none"/>
    <path d="M852.252,-636.442L845.362,-688.08" fill="none"/>
    <path d="M708.86,8.487L715.685,-20.772" fill="none"/>
    <path d="M967.823,218.721L966.133,211.194" fill="none"/>
    <path d="M871.492,-523.919L874.547,-518.781L877.342,-514.129L881.437,-510.172L886.377,-506.84" fill="none"/>
    <path d="M907.957,-882.576L907.957,-882.367" fill="none"/>
    <path d="M514.704,267.951L517.304,265.949" fill="none"/>
    <path d="M368.517,186.467L372.937,189.299" fill="none"/>
    <path d="M320.612,59.52L321.132,64.912" fill="none"/>
    <path d="M488.898,368.358L487.598,381.809" fill="none"/>
    <path d="M902.367,122.213L902.237,120.693" fill="none"/>
    <path d="M654.585,-164.876L662.71,-165.222L682.86,-168.961L687.995,-169.446L693.845,-169.238L699.435,-168.061L707.56,-164.806" fill="none"/>
    <path d="M708.535,9.87L708.86,8.487" fill="none"/>
    <path d="M314.567,4.959L314.827,5.513L315.152,6.135" fill="none"/>
    <path d="M-111.837,339.313L-106.052,337.036" fill="none"/>
    <path d="M850.822,-520.655L851.732,-525.724" fill="none"/>
    <path d="M345.377,164.984L345.637,165.329" fill="none"/>
    <path d="M770.091,-207.055L770.351,-207.887" fill="none"/>
    <path d="M473.298,333.103L474.143,334" fill="none"/>
    <path d="M684.16,92.909L684.81,92.011" fill="none"/>
    <path d="M885.857,-703.443L883.777,-695.379L882.217,-691.834" fill="none"/>
    <path d="M322.952,105.143L324.317,116.339" fill="none"/>
    <path d="M786.341,-267.542L790.241,-282.651" fill="none"/>
    <path d="M763.656,-862.808L758.131,-869.141L749.551,-881.183" fill="none"/>
    <path d="M324.447,117.03L327.502,126.982L331.272,135.481" fill="none"/>
    <path d="M704.245,28.612L704.375,27.851L704.505,27.16" fill="none"/>
    <path d="M76.665,300.807L90.705,297.632L98.635,293.905" fill="none"/>
    <path d="M486.948,357.596L484.673,347.11" fill="none"/>
    <path d="M841.917,-471.578L846.077,-494.345" fill="none"/>
    <path d="M-234.298,413.466L-232.673,412.845" fill="none"/>
    <path d="M-213.108,400.087L-212.328,399.535" fill="none"/>
    <path d="M385.742,215.752L385.482,217.409L385.287,218.307" fill="none"/>
    <path d="M-248.273,415.811L-241.123,415.259L-234.298,413.466" fill="none"/>
    <path d="M790.241,-282.651L790.371,-283.275" fill="none"/>
    <path d="M854.917,-645.475L853.162,-640.889" fill="none"/>
    <path d="M902.757,113.437L903.992,107.77L904.187,106.733L904.317,106.249L904.902,103.415L905.162,101.48L906.397,92.702L905.812,82.886L902.822,74.315L901.132,70.858L897.622,66.226L892.032,60.972L876.107,51.016L871.102,46.314L868.372,42.165L867.397,40.851L862.392,30.341L862.197,29.58L861.547,28.197L860.637,25.777L856.737,16.233L856.087,13.812L854.137,7.657L851.732,0.187L850.367,-4.309L847.962,-10.534L844.582,-19.735L844.582,-19.735L836.327,-41.942L835.872,-43.049L835.222,-52.736L835.742,-56.196L841.007,-91.421L841.007,-91.698L841.462,-95.02L845.167,-108.033L857.842,-141.194L858.492,-142.717L863.302,-155.666L864.797,-159.405L865.317,-160.859L866.747,-164.529L868.177,-172.84L868.437,-180.596L866.357,-200.128L862.717,-220.633L862.262,-223.335L861.677,-225.691L861.027,-229.155L858.297,-241.695L857.127,-247.1L856.347,-253.683L856.347,-254.999L856.282,-258.395L856.022,-270.661L856.022,-271.077L856.737,-281.542L856.607,-288.889L856.087,-292.562L855.372,-296.999L847.832,-322.093L847.832,-322.093L844.972,-331.384L838.862,-343.032L834.702,-348.025L829.826,-357.941L828.656,-360.23L826.121,-367.234" fill="none"/>
    <path d="M379.372,194.756L382.362,198.9" fill="none"/>
    <path d="M479.473,339.658L480.643,340.969" fill="none"/>
    <path d="M295.132,-93.636L295.002,-100.627" fill="none"/>
    <path d="M485.323,326.479L485.648,325.513" fill="none"/>
    <path d="M321.717,78.117L321.782,78.877" fill="none"/>
    <path d="M743.441,-142.025L745.976,-150.819L747.926,-157.535L751.371,-165.637" fill="none"/>
    <path d="M752.021,-167.022L752.151,-167.369" fill="none"/>
    <path d="M810.131,-812.078L765.411,-860.928" fill="none"/>
    <path d="M-56.587,321.994L-41.766,327.79" fill="none"/>
    <path d="M248.721,273.335L249.176,273.404" fill="none"/>
    <path d="M722.576,-50.591L723.421,-45.886" fill="none"/>
    <path d="M302.867,-29.766L302.412,-32.187L302.022,-34.954" fill="none"/>
    <path d="M702.295,36.772L704.245,28.612" fill="none"/>
    <path d="M41.304,309.365L47.349,306.742L58.464,304.189" fill="none"/>
    <path d="M742.791,-139.186L743.376,-136.14" fill="none"/>
    <path d="M906.852,-902.764L907.957,-882.576" fill="none"/>
    <path d="M108.45,287.072L109.23,286.658" fill="none"/>
    <path d="M212.711,271.886L223.176,271.195" fill="none"/>
    <path d="M236.306,271.679L241.116,272.3" fill="none"/>
    <path d="M886.377,-506.84L887.092,-506.423" fill="none"/>
    <path d="M487.598,381.809L487.598,382.982L487.598,384.223" fill="none"/>
    <path d="M517.304,265.949L518.409,265.12" fill="none"/>
    <path d="M904.317,-776.946L903.992,-776.529L903.667,-775.903" fill="none"/>
    <path d="M824.626,-376.25L827.031,-386.446" fill="none"/>
    <path d="M460.038,319.44L460.753,320.13L461.663,321.027" fill="none"/>
    <path d="M714.84,-161.759L727.906,-156.081" fill="none"/>
    <path d="M719.065,-35.024L721.406,-45.54" fill="none"/>
    <path d="M385.937,209.882L385.742,215.752" fill="none"/>
    <path d="M482.398,278.444L487.533,277.753" fill="none"/>
    <path d="M-297.219,444.633L-285.259,431.188L-278.109,424.361L-272.649,420.844L-266.733,418.224L-259.323,416.5L-248.273,415.811" fill="none"/>
    <path d="M317.817,48.112L320.092,56.823" fill="none"/>
    <path d="M-400.05,620.469L-394.005,615.443" fill="none"/>
    <path d="M725.631,-63.946L728.946,-78.548" fill="none"/>
    <path d="M324.317,116.339L324.447,117.03" fill="none"/>
    <path d="M727.906,-156.081L734.341,-152.965L735.836,-152.134" fill="none"/>
    <path d="M306.962,-12.54L305.402,-17.521" fill="none"/>
    <path d="M-297.934,445.46L-297.219,444.633" fill="none"/>
    <path d="M645.29,141.838L649.71,137.071" fill="none"/>
    <path d="M-348.439,547.736L-348.114,547.254L-347.789,546.703" fill="none"/>
    <path d="M463.028,316.611L463.028,315.783" fill="none"/>
    <path d="M40.849,309.572L41.304,309.365" fill="none"/>
    <path d="M770.351,-207.887L774.316,-220.425L785.821,-265.394" fill="none"/>
    <path d="M792.386,-290.83L792.711,-292.285" fill="none"/>
    <path d="M306.962,-12.54L309.952,-5.623" fill="none"/>
    <path d="M301.762,-125.824L303.907,-127.97L306.962,-130.809" fill="none"/>
    <path d="M384.312,221.553L382.622,225.627" fill="none"/>
    <path d="M-84.147,328.549L-82.977,327.997L-82.522,327.928" fill="none"/>
    <path d="M382.362,198.9L383.012,199.936" fill="none"/>
    <path d="M749.551,-881.183L743.246,-892.739L734.601,-911.815" fill="none"/>
    <path d="M713.735,-162.244L714.84,-161.759" fill="none"/>
    <path d="M488.703,280.86L489.613,280.1L492.993,277.063" fill="none"/>
    <path d="M399.653,-113.779L405.503,-110.664" fill="none"/>
    <path d="M831.387,-411.14L841.722,-470.19" fill="none"/>
    <path d="M403.033,276.028L405.763,277.96" fill="none"/>
    <path d="M839.707,-729.725L837.822,-744.189" fill="none"/>
    <path d="M367.152,260.288L373.782,260.219" fill="none"/>
    <path d="M169.55,278.375L179.236,276.235" fill="none"/>
    <path d="M707.56,-164.806L713.735,-162.244" fill="none"/>
    <path d="M902.237,120.693L902.757,113.437" fill="none"/>
    <path d="M472.128,323.995L472.323,322.891" fill="none"/>
    <path d="M321.977,83.923L321.977,84.891L322.042,85.928" fill="none"/>
    <path d="M382.622,225.627L381.387,228.458L380.932,229.632" fill="none"/>
    <path d="M716.075,-22.709L716.92,-26.099L717.115,-26.722" fill="none"/>
    <path d="M-420.59,-621.92L-419.81,-622.545L-411.815,-626.853L-378.665,-637.554L-378.6,-637.554L-362.089,-642.904L-356.044,-645.475L-350.649,-649.575L-345.189,-656.386L-342.134,-663.753L-336.219,-691.556L-336.219,-691.625L-332.514,-709.005L-318.734,-745.023L-307.814,-773.677L-306.124,-780.981L-305.344,-794.476L-304.499,-800.32L-301.314,-808.808L-299.624,-811.73L-297.609,-814.861" fill="none"/>
    <path d="M882.217,-691.834L882.022,-691.347L881.697,-690.583" fill="none"/>
    <path d="M913.742,-842.973L915.497,-836.292L916.992,-827.176L917.317,-819.662L916.537,-809.295L914.522,-799.833" fill="none"/>
    <path d="M303.452,-26.03L302.867,-29.766" fill="none"/>
    <path d="M378.527,235.57L377.942,237.573" fill="none"/>
    <path d="M-338.819,528.376L-335.569,518.591" fill="none"/>
    <path d="M137.31,281.274L155.25,281.067L169.55,278.375" fill="none"/>
    <path d="M320.092,56.823L320.222,57.446" fill="none"/>
    <path d="M896.582,-503.577L895.347,-503.785L893.332,-504.202L892.422,-504.271" fill="none"/>
    <path d="M377.877,237.987L377.227,241.785" fill="none"/>
    <path d="M-104.557,336.415L-93.897,332.275" fill="none"/>
    <path d="M504.109,474.069L503.329,458.421L501.899,450.148" fill="none"/>
    <path d="M829.371,-785.502L828.916,-786.407" fill="none"/>
    <path d="M234.421,271.472L235.526,271.61" fill="none"/>
    <path d="M486.428,285.208L487.793,282.033" fill="none"/>
    <path d="M463.613,321.994L463.418,320.682L463.353,320.13" fill="none"/>
    <path d="M827.031,-386.446L827.031,-386.654L827.096,-386.862" fill="none"/>
    <path d="M212.061,271.886L212.711,271.886" fill="none"/>
    <path d="M100.845,292.387L108.45,287.072" fill="none"/>
    <path d="M534.074,-85.607L536.739,-88.029L538.169,-90.313L539.014,-91.49L540.639,-94.051L545.059,-103.049L545.384,-103.88L554.809,-123.055L557.084,-127.624L558.124,-129.77" fill="none"/>
    <path d="M737.071,-114.471L737.266,-114.955" fill="none"/>
    <path d="M606.809,181.701L607.264,181.218" fill="none"/>
    <path d="M554.549,236.054L555.264,235.225" fill="none"/>
    <path d="M321.132,64.912L321.132,65.535" fill="none"/>
    <path d="M489.158,277.546L492.993,277.063" fill="none"/>
    <path d="M331.207,254.627L338.747,256.56" fill="none"/>
    <path d="M743.376,-136.14L743.506,-131.917L741.881,-124.786L737.071,-114.471" fill="none"/>
    <path d="M834.897,-765.887L834.832,-766.374L834.767,-767" fill="none"/>
    <path d="M859.012,-586.976L852.252,-636.442" fill="none"/>
    <path d="M811.041,-811.034L810.651,-811.451L810.131,-812.078" fill="none"/>
    <path d="M721.666,-46.232L722.576,-50.591" fill="none"/>
    <path d="M318.597,18.861L318.207,23.633" fill="none"/>
    <path d="M616.365,171.754L643.535,143.842" fill="none"/>
    <path d="M302.022,-34.954L300.072,-45.471" fill="none"/>
    <path d="M401.018,274.647L401.668,275.061L402.253,275.406" fill="none"/>
    <path d="M769.831,-206.432L770.091,-207.055" fill="none"/>
    <path d="M734.601,-911.815L734.016,-913.138" fill="none"/>
    <path d="M612.985,175.277L614.09,174.172" fill="none"/>
    <path d="M322.237,90.49L322.367,92.495" fill="none"/>
    <path d="M298.902,-122.293L301.762,-125.824" fill="none"/>
    <path d="M340.112,256.974L354.802,260.702L359.677,260.978L366.437,260.426" fill="none"/>
    <path d="M827.096,-386.862L831.387,-411.14" fill="none"/>
    <path d="M402.253,275.406L403.033,276.028" fill="none"/>
    <path d="M839.902,-728.195L839.707,-729.725" fill="none"/>
    <path d="M299.357,-49.276L296.432,-68.236L296.042,-75.918" fill="none"/>
    <path d="M463.028,315.783L463.093,311.78L463.093,310.745" fill="none"/>
    <path d="M930.382,163.326L925.052,155.864" fill="none"/>
    <path d="M463.678,323.098L463.613,321.994" fill="none"/>
    <path d="M717.115,-26.722L719.065,-35.024" fill="none"/>
    <path d="M-59.187,321.372L-58.277,321.579L-56.587,321.994" fill="none"/>
    <path d="M474.533,333.241L473.753,332.137" fill="none"/>
    <path d="M333.872,140.871L337.447,148.402L337.642,148.817" fill="none"/>
    <path d="M-119.832,-871.856L-118.207,-871.717L-116.777,-871.578" fill="none"/>
    <path d="M792.711,-292.285L796.416,-306.773" fill="none"/>
    <path d="M913.417,-844.295L913.742,-842.973" fill="none"/>
    <path d="M318.597,18.169L318.597,18.861" fill="none"/>
    <path d="M967.823,218.721L971.073,228.389L976.468,235.985" fill="none"/>
    <path d="M-16.416,324.064L-9.201,322.684L0.224,323.374" fill="none"/>
    <path d="M518.409,265.12L540.769,249.794L554.549,236.054" fill="none"/>
    <path d="M61.909,303.568L75.82,300.876" fill="none"/>
    <path d="M693.975,72.863L694.43,71.134" fill="none"/>
    <path d="M322.432,94.637L322.822,103.83L322.952,105.143" fill="none"/>
    <path d="M742.791,-139.186L743.441,-142.025" fill="none"/>
    <path d="M385.287,218.307L384.312,221.553" fill="none"/>
    <path d="M-340.704,534.026L-340.379,533.061" fill="none"/>
    <path d="M316.452,39.192L316.517,40.437" fill="none"/>
    <path d="M-93.897,332.275L-84.147,328.549" fill="none"/>
    <path d="M906.137,-916.48L906.852,-902.764" fill="none"/>
    <path d="M1.784,323.788L3.084,324.064" fill="none"/>
    <path d="M848.027,-504.896L848.222,-506.007" fill="none"/>
    <path d="M385.222,205.876L385.547,207.879L385.937,209.882" fill="none"/>
    <path d="M757.351,-178.311L765.021,-194.587L769.831,-206.432" fill="none"/>
    <path d="M511.064,270.919L511.909,270.16L513.014,269.401L513.469,268.986" fill="none"/>
    <path d="M660.11,124.563L660.825,123.596" fill="none"/>
    <path d="M-39.816,328.135L-32.276,328.204L-18.431,324.685" fill="none"/>
    <path d="M378.527,193.72L379.372,194.756" fill="none"/>
    <path d="M558.124,-129.77L559.684,-133.232L559.879,-133.509L561.244,-136.555L562.934,-140.294L563.259,-140.986L567.744,-150.819L573.984,-160.928L574.439,-161.482L577.234,-164.599L577.624,-165.014L578.664,-166.33L586.334,-171.524L589.064,-172.632L590.169,-172.978L594.199,-174.502L601.219,-175.956L606.354,-175.748L607.784,-175.471L608.954,-175.264L617.6,-173.324L618.835,-172.909L621.63,-172.009L621.76,-172.009L625.335,-170.901L628.39,-169.862L628.39,-169.862L633.135,-168.477L634.63,-167.923L638.27,-166.815L639.895,-166.33L644.64,-165.222L653.545,-164.876L654.585,-164.876" fill="none"/>
    <path d="M-115.347,340.624L-111.837,339.313" fill="none"/>
    <path d="M790.956,-285.701L792.386,-290.83" fill="none"/>
    <path d="M723.421,-45.886L723.486,-45.333" fill="none"/>
    <path d="M852.837,-639.499L852.252,-636.442" fill="none"/>
    <path d="M704.505,27.16L708.535,9.87" fill="none"/>
    <path d="M-401.675,621.778L-400.83,621.158L-400.05,620.469" fill="none"/>
    <path d="M224.346,271.126L234.421,271.472" fill="none"/>
    <path d="M742.596,-21.464L743.441,-20.634" fill="none"/>
    <path d="M925.052,155.864L922.842,152.755L922.712,152.548L920.047,148.955" fill="none"/>
    <path d="M887.027,-725.414L887.027,-723.745L886.897,-720.894" fill="none"/>
    <path d="M383.012,199.936L385.222,205.876" fill="none"/>
    <path d="M474.143,334L476.223,336.07" fill="none"/>
    <path d="M377.942,237.573L377.877,237.987" fill="none"/>
    <path d="M851.732,-525.724L859.402,-571.695L859.597,-579.544L859.142,-585.864" fill="none"/>
    <path d="M322.172,88.347L322.237,90.49" fill="none"/>
    <path d="M785.821,-265.394L786.341,-267.542" fill="none"/>
    <path d="M643.535,143.842L645.29,141.838" fill="none"/>
    <path d="M241.116,272.3L242.156,272.507L243.326,272.645" fill="none"/>
    <path d="M845.362,-688.08L845.232,-688.914L845.102,-689.679" fill="none"/>
    <path d="M500.143,469.658L499.558,456.904L501.899,450.148" fill="none"/>
    <path d="M722.576,-50.591L725.306,-62.631" fill="none"/>
    <path d="M388.472,-123.47L399.263,-114.055" fill="none"/>
    <path d="M310.732,-3.894L314.567,4.959" fill="none"/>
    <path d="M306.962,-130.809L311.122,-134.617L313.787,-137.04" fill="none"/>
    <path d="M488.768,366.565L488.703,366.082" fill="none"/>
    <path d="M694.43,71.134L702.295,36.772" fill="none"/>
    <path d="M381.972,262.014L384.247,263.049" fill="none"/>
    <path d="M955.733,188.609L950.923,183.635L943.643,177.557L936.037,170.027L931.487,164.569" fill="none"/>
    <path d="M295.002,-100.627L294.742,-102.772" fill="none"/>
    <path d="M790.371,-283.275L790.956,-285.701" fill="none"/>
    <path d="M-138.877,349.11L-115.347,340.624" fill="none"/>
    <path d="M-41.181,327.928L-39.816,328.135" fill="none"/>
    <path d="M837.822,-744.189L837.692,-745.232" fill="none"/>
    <path d="M845.102,-689.679L839.902,-728.195" fill="none"/>
    <path d="M821.246,-799.137L820.921,-799.555L820.466,-800.25" fill="none"/>
    <path d="M377.357,260.564L377.942,260.771" fill="none"/>
    <path d="M342.387,158.697L345.377,164.984" fill="none"/>
    <path d="M976.468,235.985L977.183,236.537L977.833,237.159" fill="none"/>
    <path d="M-197.638,389.052L-185.158,380.085L-165.983,363.253L-156.492,355.872L-149.602,352.215L-140.047,349.386" fill="none"/>
    <path d="M414.473,284.104L415.253,284.656" fill="none"/>
    <path d="M331.467,135.758L333.872,140.871" fill="none"/>
    <path d="M487.273,358.493L486.948,357.596" fill="none"/>
    <path d="M650.23,136.449L650.815,135.827" fill="none"/>
    <path d="M493.838,414.293L494.098,415.052L494.293,416.224" fill="none"/>
    <path d="M109.23,286.658L110.53,286.036" fill="none"/>
    <path d="M715.815,-21.187L716.075,-22.709" fill="none"/>
    <path d="M322.367,92.495L322.432,94.637" fill="none"/>
    <path d="M615.91,172.237L616.365,171.754" fill="none"/>
    <path d="M492.993,277.063L498.258,276.649L506.059,276.028" fill="none"/>
    <path d="M463.678,323.098L473.298,333.103" fill="none"/>
    <path d="M715.685,-20.772L715.815,-21.187" fill="none"/>
    <path d="M886.897,-720.894L886.702,-710.257L885.922,-703.722" fill="none"/>
    <path d="M-335.309,517.695L-323.934,483.237L-321.204,477.378L-316.524,470.554L-316.134,469.933" fill="none"/>
    <path d="M492.018,406.294L493.838,414.293" fill="none"/>
    <path d="M848.872,-509.894L850.497,-518.92" fill="none"/>
    <path d="M321.392,70.028L321.392,70.789" fill="none"/>
    <path d="M828.916,-786.407L821.246,-799.137" fill="none"/>
    <path d="M297.277,264.361L303.192,259.46" fill="none"/>
    <path d="M607.264,181.218L610.189,178.178" fill="none"/>
    <path d="M380.932,229.632L378.722,234.88" fill="none"/>
    <path d="M859.142,-585.864L859.012,-586.976" fill="none"/>
    <path d="M317.492,47.005L317.817,48.112" fill="none"/>
    <path d="M903.667,-775.903L896.517,-761.366L890.732,-745.023" fill="none"/>
    <path d="M885.922,-703.722L885.857,-703.443" fill="none"/>
    <path d="M837.692,-745.232L834.897,-765.887" fill="none"/>
    <path d="M345.637,165.329L349.017,170.787" fill="none"/>
    <path d="M479.278,339.313L479.473,339.658" fill="none"/>
    <path d="M910.492,-788.633L909.777,-787.102L909.257,-786.128" fill="none"/>
    <path d="M-340.379,533.061L-338.819,528.376" fill="none"/>
    <path d="M487.533,277.753L489.158,277.546" fill="none"/>
    <path d="M568.134,221.898L593.224,195.861" fill="none"/>
    <path d="M892.422,-504.271L887.092,-506.423" fill="none"/>
    <path d="M594.914,194.065L606.809,181.701" fill="none"/>
    <path d="M397.573,272.093L401.018,274.647" fill="none"/>
    <path d="M0.224,323.374L1.784,323.788" fill="none"/>
    <path d="M281.937,274.095L282.912,273.75L283.887,273.404" fill="none"/>
    <path d="M737.266,-114.955L741.751,-134.755" fill="none"/>
    <path d="M318.077,25.431L317.622,28.819" fill="none"/>
    <path d="M473.103,320.061L473.168,319.578L474.078,312.056L478.108,296.942L480.253,292.732L486.428,285.208" fill="none"/>
    <path d="M377.227,241.785L377.032,242.544" fill="none"/>
    <path d="M-297.609,-814.861L-297.349,-815.278" fill="none"/>
  </g>
</svg>